<mxfile host="65bd71144e">
    <diagram id="jll_z-hw4koq86zmvn64" name="Page-1">
        <mxGraphModel dx="954" dy="380" grid="1" gridSize="10" guides="1" tooltips="1" connect="1" arrows="1" fold="1" page="1" pageScale="1" pageWidth="827" pageHeight="1169" math="0" shadow="0">
            <root>
                <mxCell id="0"/>
                <mxCell id="1" parent="0"/>
                <mxCell id="11" value="" style="whiteSpace=wrap;html=1;labelPosition=center;verticalLabelPosition=top;align=center;verticalAlign=bottom;fontSize=16;" parent="1" vertex="1">
                    <mxGeometry x="-40" y="60" width="760" height="880" as="geometry"/>
                </mxCell>
                <mxCell id="zH2k-DtikKzFAa1dBs3I-8" value="" style="whiteSpace=wrap;html=1;labelPosition=center;verticalLabelPosition=top;align=center;verticalAlign=bottom;fontSize=16;" parent="1" vertex="1">
                    <mxGeometry x="110" y="110" width="570" height="460" as="geometry"/>
                </mxCell>
                <mxCell id="zH2k-DtikKzFAa1dBs3I-11" value="" style="whiteSpace=wrap;html=1;" parent="1" vertex="1">
                    <mxGeometry x="130" y="360" width="200" height="160" as="geometry"/>
                </mxCell>
                <mxCell id="zH2k-DtikKzFAa1dBs3I-7" value="" style="shape=image;verticalLabelPosition=bottom;verticalAlign=top;imageAspect=0;aspect=fixed;image=data:image/svg+xml,PHN2ZyB4bWxucz0iaHR0cDovL3d3dy53My5vcmcvMjAwMC9zdmciIGlkPSJmY2EyMTA1Zi1jMDM5LTRmMzQtYmQ2NS04YWI5NWQ0ZWNkYjkiIHdpZHRoPSIxOCIgaGVpZ2h0PSIxOCIgdmlld0JveD0iMCAwIDE4IDE4Ij4mI3hhOyAgPGRlZnM+JiN4YTsgICAgPGxpbmVhckdyYWRpZW50IGlkPSJhNzczYWYzOC00M2U0LTRmZDItOTQ4NS1mOGFhYzYzY2E5MWIiIHgxPSI1LjU3IiB5MT0iMTcuNSIgeDI9IjUuNTciIHkyPSIwLjUiIGdyYWRpZW50VW5pdHM9InVzZXJTcGFjZU9uVXNlIj4mI3hhOyAgICAgIDxzdG9wIG9mZnNldD0iMC4wNSIgc3RvcC1jb2xvcj0iIzk0OTQ5NCIvPiYjeGE7ICAgICAgPHN0b3Agb2Zmc2V0PSIwLjM2IiBzdG9wLWNvbG9yPSIjOTc5Nzk3Ii8+JiN4YTsgICAgICA8c3RvcCBvZmZzZXQ9IjAuNTQiIHN0b3AtY29sb3I9IiM5ZjlmOWYiLz4mI3hhOyAgICAgIDxzdG9wIG9mZnNldD0iMC42OSIgc3RvcC1jb2xvcj0iI2FkYWRhZCIvPiYjeGE7ICAgICAgPHN0b3Agb2Zmc2V0PSIwLjczIiBzdG9wLWNvbG9yPSIjYjNiM2IzIi8+JiN4YTsgICAgPC9saW5lYXJHcmFkaWVudD4mI3hhOyAgICA8bGluZWFyR3JhZGllbnQgaWQ9ImI0Nzc5YWU2LTc0YTUtNDg2ZC04YWFkLWNkMDExODU5Nzg1YSIgeDE9IjEwLjU2IiB5MT0iNi4wMiIgeDI9IjEwLjU2IiB5Mj0iMTkuNzEiIGdyYWRpZW50VW5pdHM9InVzZXJTcGFjZU9uVXNlIj4mI3hhOyAgICAgIDxzdG9wIG9mZnNldD0iMC4xOCIgc3RvcC1jb2xvcj0iIzVlYTBlZiIvPiYjeGE7ICAgICAgPHN0b3Agb2Zmc2V0PSIxIiBzdG9wLWNvbG9yPSIjMDA3OGQ0Ii8+JiN4YTsgICAgPC9saW5lYXJHcmFkaWVudD4mI3hhOyAgPC9kZWZzPiYjeGE7ICA8dGl0bGU+SWNvbi13ZWItNDY8L3RpdGxlPiYjeGE7ICA8cGF0aCBkPSJNMTAuNTYsMTYuOTNhLjU2LjU2LDAsMCwxLS41Ny41N0gxLjE0YS41Ni41NiwwLDAsMS0uNTYtLjU3VjEuMDdBLjU2LjU2LDAsMCwxLDEuMTQuNUgxMGEuNTYuNTYsMCwwLDEsLjU3LjU3WiIgZmlsbD0idXJsKCNhNzczYWYzOC00M2U0LTRmZDItOTQ4NS1mOGFhYzYzY2E5MWIpIi8+JiN4YTsgIDxwYXRoIGQ9Ik0yLDYuNDZBMS4wOCwxLjA4LDAsMCwxLDMuMTMsNS4zOGg1QTEuMDgsMS4wOCwwLDAsMSw5LjE4LDYuNDZoMEExLjA4LDEuMDgsMCwwLDEsOC4xLDcuNTVoLTVBMS4wOSwxLjA5LDAsMCwxLDIsNi40NloiIGZpbGw9IiMwMDMwNjciLz4mI3hhOyAgPHBhdGggZD0iTTIsMy4yNEExLjA5LDEuMDksMCwwLDEsMy4xMywyLjE1aDVBMS4wOCwxLjA4LDAsMCwxLDkuMTgsMy4yNGgwQTEuMDgsMS4wOCwwLDAsMSw4LjEsNC4zMmgtNUExLjA4LDEuMDgsMCwwLDEsMiwzLjI0WiIgZmlsbD0iIzAwMzA2NyIvPiYjeGE7ICA8Y2lyY2xlIGN4PSIzLjE3IiBjeT0iMy4yNCIgcj0iMC43MyIgZmlsbD0iIzUwZTZmZiIvPiYjeGE7ICA8Y2lyY2xlIGN4PSIzLjE3IiBjeT0iNi40NiIgcj0iMC43MyIgZmlsbD0iIzUwZTZmZiIvPiYjeGE7ICA8cGF0aCBkPSJNMTcuNDIsMTQuMzhhMy4xMiwzLjEyLDAsMCwwLTIuNjctMywzLjkzLDMuOTMsMCwwLDAtNC0zLjgsNCw0LDAsMCwwLTMuODMsMi42NkEzLjcsMy43LDAsMCwwLDMuNywxMy44MywzLjc3LDMuNzcsMCwwLDAsNy41NiwxNy41bC4zNCwwaDYuMjZsLjE3LDBBMy4xNSwzLjE1LDAsMCwwLDE3LjQyLDE0LjM4WiIgZmlsbD0idXJsKCNiNDc3OWFlNi03NGE1LTQ4NmQtOGFhZC1jZDAxMTg1OTc4NWEpIi8+JiN4YTsgICYjeGE7PC9zdmc+" parent="1" vertex="1">
                    <mxGeometry x="139.78" y="332" width="40" height="40" as="geometry"/>
                </mxCell>
                <mxCell id="zH2k-DtikKzFAa1dBs3I-13" value="" style="whiteSpace=wrap;html=1;" parent="1" vertex="1">
                    <mxGeometry x="449" y="360" width="172" height="160" as="geometry"/>
                </mxCell>
                <mxCell id="zH2k-DtikKzFAa1dBs3I-6" value="Article Dabase" style="shape=image;verticalLabelPosition=bottom;verticalAlign=top;imageAspect=0;aspect=fixed;image=data:image/svg+xml,PHN2ZyB4bWxucz0iaHR0cDovL3d3dy53My5vcmcvMjAwMC9zdmciIGlkPSJhOTY3OTJiNy1jZTI4LTRjYTMtOTc2Ny00ZTA2NWVmNDgyMGYiIHdpZHRoPSIxOCIgaGVpZ2h0PSIxOCIgdmlld0JveD0iMCAwIDE4IDE4Ij48ZGVmcz48bGluZWFyR3JhZGllbnQgaWQ9ImVmMTZiZjlkLWE4YjYtNDE4MS1iNmNkLTY2ZmM1MjAzZjk1NiIgeDE9IjIuNTkiIHkxPSIxMC4xNiIgeDI9IjE1LjQxIiB5Mj0iMTAuMTYiIGdyYWRpZW50VW5pdHM9InVzZXJTcGFjZU9uVXNlIj48c3RvcCBvZmZzZXQ9IjAiIHN0b3AtY29sb3I9IiMwMDViYTEiLz48c3RvcCBvZmZzZXQ9IjAuMDciIHN0b3AtY29sb3I9IiMwMDYwYTkiLz48c3RvcCBvZmZzZXQ9IjAuMzYiIHN0b3AtY29sb3I9IiMwMDcxYzgiLz48c3RvcCBvZmZzZXQ9IjAuNTIiIHN0b3AtY29sb3I9IiMwMDc4ZDQiLz48c3RvcCBvZmZzZXQ9IjAuNjQiIHN0b3AtY29sb3I9IiMwMDc0Y2QiLz48c3RvcCBvZmZzZXQ9IjAuODIiIHN0b3AtY29sb3I9IiMwMDZhYmIiLz48c3RvcCBvZmZzZXQ9IjEiIHN0b3AtY29sb3I9IiMwMDViYTEiLz48L2xpbmVhckdyYWRpZW50PjxyYWRpYWxHcmFkaWVudCBpZD0iYmYzODQ2YzMtNGQ3NC00NzQzLWFiOWEtZjMzNGMyNDhiZDkyIiBjeD0iOS4zNiIgY3k9IjEwLjU3IiByPSI3LjA3IiBncmFkaWVudFVuaXRzPSJ1c2VyU3BhY2VPblVzZSI+PHN0b3Agb2Zmc2V0PSIwIiBzdG9wLWNvbG9yPSIjZjJmMmYyIi8+PHN0b3Agb2Zmc2V0PSIwLjU4IiBzdG9wLWNvbG9yPSIjZWVlIi8+PHN0b3Agb2Zmc2V0PSIxIiBzdG9wLWNvbG9yPSIjZTZlNmU2Ii8+PC9yYWRpYWxHcmFkaWVudD48L2RlZnM+PHRpdGxlPkljb24tZGF0YWJhc2VzLTEzMDwvdGl0bGU+PHBhdGggZD0iTTksNS4xNGMtMy41NCwwLTYuNDEtMS02LjQxLTIuMzJWMTUuMThjMCwxLjI3LDIuODIsMi4zLDYuMzIsMi4zMkg5YzMuNTQsMCw2LjQxLTEsNi40MS0yLjMyVjIuODJDMTUuNDEsNC4xMSwxMi41NCw1LjE0LDksNS4xNFoiIGZpbGw9InVybCgjZWYxNmJmOWQtYThiNi00MTgxLWI2Y2QtNjZmYzUyMDNmOTU2KSIvPjxwYXRoIGQ9Ik0xNS40MSwyLjgyYzAsMS4yOS0yLjg3LDIuMzItNi40MSwyLjMycy02LjQxLTEtNi40MS0yLjMyUzUuNDYuNSw5LC41czYuNDEsMSw2LjQxLDIuMzIiIGZpbGw9IiNlOGU4ZTgiLz48cGF0aCBkPSJNMTMuOTIsMi42M2MwLC44Mi0yLjIxLDEuNDgtNC45MiwxLjQ4UzQuMDgsMy40NSw0LjA4LDIuNjMsNi4yOSwxLjE2LDksMS4xNnM0LjkyLjY2LDQuOTIsMS40NyIgZmlsbD0iIzUwZTZmZiIvPjxwYXRoIGQ9Ik05LDNhMTEuNTUsMTEuNTUsMCwwLDAtMy44OS41N0ExMS40MiwxMS40MiwwLDAsMCw5LDQuMTFhMTEuMTUsMTEuMTUsMCwwLDAsMy44OS0uNThBMTEuODQsMTEuODQsMCwwLDAsOSwzWiIgZmlsbD0iIzE5OGFiMyIvPjxwYXRoIGQ9Ik0xMi45LDExLjRWOEgxMnY0LjEzaDIuNDZWMTEuNFpNNS43Niw5LjczYTEuODMsMS44MywwLDAsMS0uNTEtLjMxLjQ0LjQ0LDAsMCwxLS4xMi0uMzIuMzQuMzQsMCwwLDEsLjE1LS4zLjY4LjY4LDAsMCwxLC40Mi0uMTIsMS42MiwxLjYyLDAsMCwxLDEsLjI5VjguMTFhMi41OCwyLjU4LDAsMCwwLTEtLjE2LDEuNjQsMS42NCwwLDAsMC0xLjA5LjM0LDEuMDgsMS4wOCwwLDAsMC0uNDIuODljMCwuNTEuMzIuOTEsMSwxLjIxYTIuODgsMi44OCwwLDAsMSwuNjIuMzYuNDIuNDIsMCwwLDEsLjE1LjMyLjM4LjM4LDAsMCwxLS4xNi4zMS44MS44MSwwLDAsMS0uNDUuMTEsMS42NiwxLjY2LDAsMCwxLTEuMDktLjQyVjEyYTIuMTcsMi4xNywwLDAsMCwxLjA3LjI0LDEuODgsMS44OCwwLDAsMCwxLjE4LS4zM0ExLjA4LDEuMDgsMCwwLDAsNi44NCwxMWExLjA1LDEuMDUsMCwwLDAtLjI1LS43QTIuNDIsMi40MiwwLDAsMCw1Ljc2LDkuNzNaTTExLDExLjMyYTIuMzQsMi4zNCwwLDAsMCwuMzMtMS4yNkEyLjMyLDIuMzIsMCwwLDAsMTEsOWExLjgxLDEuODEsMCwwLDAtLjctLjc1LDIsMiwwLDAsMC0xLS4yNiwyLjExLDIuMTEsMCwwLDAtMS4wOC4yN0ExLjg2LDEuODYsMCwwLDAsNy40OSw5YTIuNDYsMi40NiwwLDAsMC0uMjYsMS4xNCwyLjI2LDIuMjYsMCwwLDAsLjI0LDEsMS43NiwxLjc2LDAsMCwwLC42OS43NCwyLjA2LDIuMDYsMCwwLDAsMSwuM2wuODYsMWgxLjIxTDEwLDEyLjA4QTEuNzksMS43OSwwLDAsMCwxMSwxMS4zMlpNMTAsMTEuMDdhLjk0Ljk0LDAsMCwxLS43Ni4zNS45Mi45MiwwLDAsMS0uNzYtLjM2LDEuNTIsMS41MiwwLDAsMS0uMjktMSwxLjUzLDEuNTMsMCwwLDEsLjI5LTEsMSwxLDAsMCwxLC43OC0uMzcuODcuODcsMCwwLDEsLjc1LjM3LDEuNjIsMS42MiwwLDAsMSwuMjcsMUExLjQ2LDEuNDYsMCwwLDEsMTAsMTEuMDdaIiBmaWxsPSJ1cmwoI2JmMzg0NmMzLTRkNzQtNDc0My1hYjlhLWYzMzRjMjQ4YmQ5MikiLz48L3N2Zz4=;fontSize=16;" parent="1" vertex="1">
                    <mxGeometry x="494" y="386" width="80" height="80" as="geometry"/>
                </mxCell>
                <mxCell id="zH2k-DtikKzFAa1dBs3I-3" value="" style="shape=image;verticalLabelPosition=bottom;verticalAlign=top;imageAspect=0;aspect=fixed;image=data:image/svg+xml,PHN2ZyB4bWxucz0iaHR0cDovL3d3dy53My5vcmcvMjAwMC9zdmciIGlkPSJiMWNmZTg2Yy1mMDBiLTQ1MDctYmNlMi01MGQwN2U0NWZlOTYiIHdpZHRoPSIxOCIgaGVpZ2h0PSIxOCIgdmlld0JveD0iMCAwIDE4IDE4Ij4mI3hhOyAgPGRlZnM+JiN4YTsgICAgPGxpbmVhckdyYWRpZW50IGlkPSJiMzlkY2Y4My0xODdlLTRjNjQtOThkZi00MzFiYjYwODA5ZDIiIHgxPSIwLjUiIHkxPSIxMC4wNCIgeDI9IjEzLjE4IiB5Mj0iMTAuMDQiIGdyYWRpZW50VW5pdHM9InVzZXJTcGFjZU9uVXNlIj4mI3hhOyAgICAgIDxzdG9wIG9mZnNldD0iMCIgc3RvcC1jb2xvcj0iIzAwNWJhMSIvPiYjeGE7ICAgICAgPHN0b3Agb2Zmc2V0PSIwLjA3IiBzdG9wLWNvbG9yPSIjMDA2MGE5Ii8+JiN4YTsgICAgICA8c3RvcCBvZmZzZXQ9IjAuMzYiIHN0b3AtY29sb3I9IiMwMDcxYzgiLz4mI3hhOyAgICAgIDxzdG9wIG9mZnNldD0iMC41MiIgc3RvcC1jb2xvcj0iIzAwNzhkNCIvPiYjeGE7ICAgICAgPHN0b3Agb2Zmc2V0PSIwLjY0IiBzdG9wLWNvbG9yPSIjMDA3NGNkIi8+JiN4YTsgICAgICA8c3RvcCBvZmZzZXQ9IjAuODIiIHN0b3AtY29sb3I9IiMwMDZhYmIiLz4mI3hhOyAgICAgIDxzdG9wIG9mZnNldD0iMSIgc3RvcC1jb2xvcj0iIzAwNWJhMSIvPiYjeGE7ICAgIDwvbGluZWFyR3JhZGllbnQ+JiN4YTsgIDwvZGVmcz4mI3hhOyAgPHRpdGxlPkljb24tZGF0YWJhc2VzLTEzMjwvdGl0bGU+JiN4YTsgIDxwYXRoIGQ9Ik02Ljg0LDUuMDljLTMuNSwwLTYuMzQtMS02LjM0LTIuM1YxNWMwLDEuMjYsMi43OSwyLjI4LDYuMjUsMi4zaC4wOWMzLjUsMCw2LjM0LTEsNi4zNC0yLjNWMi43OUMxMy4xOCw0LjA2LDEwLjM0LDUuMDksNi44NCw1LjA5WiIgZmlsbD0idXJsKCNiMzlkY2Y4My0xODdlLTRjNjQtOThkZi00MzFiYjYwODA5ZDIpIi8+JiN4YTsgIDxwYXRoIGQ9Ik0xMy4xOCwyLjc5YzAsMS4yNy0yLjg0LDIuMy02LjM0LDIuM1MuNSw0LjA2LjUsMi43OSwzLjM0LjQ5LDYuODQuNDlzNi4zNCwxLDYuMzQsMi4zIiBmaWxsPSIjZThlOGU4Ii8+JiN4YTsgIDxwYXRoIGQ9Ik0xMS43LDIuNmMwLC44MS0yLjE4LDEuNDYtNC44NiwxLjQ2UzIsMy40MSwyLDIuNiw0LjE2LDEuMTQsNi44NCwxLjE0LDExLjcsMS44LDExLjcsMi42IiBmaWxsPSIjNTBlNmZmIi8+JiN4YTsgIDxwYXRoIGQ9Ik02Ljg0LDIuOTRBMTIsMTIsMCwwLDAsMywzLjQ5YTExLjI1LDExLjI1LDAsMCwwLDMuODUuNTcsMTEuMjUsMTEuMjUsMCwwLDAsMy44NS0uNTdBMTIsMTIsMCwwLDAsNi44NCwyLjk0WiIgZmlsbD0iIzE5OGFiMyIvPiYjeGE7ICA8cGF0aCBkPSJNMTAuNzQsMTEuMVY3LjcySDkuODF2NC4xNGgyLjQ2VjExLjFaTTMuNTksOS40M2ExLjkyLDEuOTIsMCwwLDEtLjUxLS4zMUEuNDQuNDQsMCwwLDEsMyw4LjhhLjM4LjM4LDAsMCwxLC4xNi0uMzEuNzIuNzIsMCwwLDEsLjQyLS4xMSwxLjY3LDEuNjcsMCwwLDEsMSwuMjlWNy44MWEyLjY3LDIuNjcsMCwwLDAtMS0uMTZBMS43NCwxLjc0LDAsMCwwLDIuMzgsOGExLjEzLDEuMTMsMCwwLDAtLjQxLjljMCwuNTEuMzIuOTEsMSwxLjIxYTIuOSwyLjksMCwwLDEsLjYxLjM2LjQuNCwwLDAsMSwuMTYuMzIuMzguMzgsMCwwLDEtLjE2LjMxLjc1Ljc1LDAsMCwxLS40NS4xMkExLjYsMS42LDAsMCwxLDIsMTAuNzd2LjkzYTIuMjksMi4yOSwwLDAsMCwxLjA3LjIzLDIsMiwwLDAsMCwxLjE4LS4zMiwxLjEsMS4xLDAsMCwwLC40My0uOTIsMSwxLDAsMCwwLS4yNS0uN0EyLjQyLDIuNDIsMCwwLDAsMy41OSw5LjQzWk04Ljc5LDExYTIuNCwyLjQsMCwwLDAsLjMzLTEuMjcsMi4zMiwyLjMyLDAsMCwwLS4yNS0xLjEsMS44MSwxLjgxLDAsMCwwLS43LS43NSwyLDIsMCwwLDAtMS0uMjYsMi4xOCwyLjE4LDAsMCwwLTEuMDkuMjcsMS44NywxLjg3LDAsMCwwLS43My43NywyLjQxLDIuNDEsMCwwLDAtLjI2LDEuMTUsMi4yNiwyLjI2LDAsMCwwLC4yNCwxLjA1LDEuODMsMS44MywwLDAsMCwuNjguNzUsMiwyLDAsMCwwLDEsLjI5bC44NSwxSDkuMDVsLTEuMi0xLjExQTEuODEsMS44MSwwLDAsMCw4Ljc5LDExWm0tLjkzLS4yNmExLDEsMCwwLDEtMS41MywwLDEuNTEsMS41MSwwLDAsMS0uMjgtMSwxLjQ4LDEuNDgsMCwwLDEsLjI5LTEsLjkyLjkyLDAsMCwxLC43OC0uMzcuODkuODksMCwwLDEsLjc1LjM3LDEuNjIsMS42MiwwLDAsMSwuMjcsMUExLjQ2LDEuNDYsMCwwLDEsNy44NiwxMC43N1oiIGZpbGw9IiNmMmYyZjIiLz4mI3hhOyAgPHBhdGggZD0iTTE0LjgxLDE3LjQ5bC4yNC0uNzkuNDctLjI3LjgxLjM2LjUyLS41M1YxNi4ybC0uMzctLjcxLjIyLS41LjgxLS4yOS4wOSwwdi0uNzNsLS4xLDAtLjgtLjI0LS4yNi0uNDYuMzUtLjgyLS41My0uNTFIMTYuMmwtLjcxLjM2TDE1LDEybC0uMzItLjg5aC0uNzRsMCwuMTEtLjI0Ljc5LS41MS4yMi0uODctLjQtLjUxLjUzLjA1LjEuMzguNzQtLjIuNTFMMTEuMSwxNHYuNzRsLjExLDAsLjc5LjI0LjIyLjUxLS4zOS44Ni41My41Mi4wOS0uMDUuNzQtLjM4LjUxLjIuMzQuODloLjczWm0tMS4yLTIuMzZhMS4wNiwxLjA2LDAsMSwxLDEuNDktMS41MiwxLjA2LDEuMDYsMCwwLDEtMS40OSwxLjUyWiIgZmlsbD0iIzk0OTQ5NCIvPiYjeGE7PC9zdmc+" parent="1" vertex="1">
                    <mxGeometry x="464" y="338" width="48" height="48" as="geometry"/>
                </mxCell>
                <mxCell id="26" style="edgeStyle=orthogonalEdgeStyle;html=1;" parent="1" source="zH2k-DtikKzFAa1dBs3I-20" target="zH2k-DtikKzFAa1dBs3I-4" edge="1">
                    <mxGeometry relative="1" as="geometry"/>
                </mxCell>
                <mxCell id="33" value=".NET&lt;br&gt;Policies" style="edgeLabel;html=1;align=center;verticalAlign=middle;resizable=0;points=[];labelBackgroundColor=none;" vertex="1" connectable="0" parent="26">
                    <mxGeometry x="0.3721" y="-2" relative="1" as="geometry">
                        <mxPoint as="offset"/>
                    </mxGeometry>
                </mxCell>
                <mxCell id="zH2k-DtikKzFAa1dBs3I-20" value="Browser" style="aspect=fixed;html=1;points=[];align=center;image;fontSize=16;image=img/lib/azure2/general/Browser.svg;" parent="1" vertex="1">
                    <mxGeometry x="-4" y="405" width="65" height="52" as="geometry"/>
                </mxCell>
                <mxCell id="9" style="edgeStyle=orthogonalEdgeStyle;html=1;" parent="1" source="zH2k-DtikKzFAa1dBs3I-23" target="zH2k-DtikKzFAa1dBs3I-20" edge="1">
                    <mxGeometry relative="1" as="geometry"/>
                </mxCell>
                <mxCell id="32" value="LOGIN" style="edgeLabel;html=1;align=center;verticalAlign=middle;resizable=0;points=[];" parent="9" vertex="1" connectable="0">
                    <mxGeometry x="-0.3427" y="1" relative="1" as="geometry">
                        <mxPoint as="offset"/>
                    </mxGeometry>
                </mxCell>
                <mxCell id="19" style="edgeStyle=orthogonalEdgeStyle;html=1;fontSize=12;fontColor=#FFFFFF;" parent="1" source="zH2k-DtikKzFAa1dBs3I-23" target="zH2k-DtikKzFAa1dBs3I-4" edge="1">
                    <mxGeometry relative="1" as="geometry"/>
                </mxCell>
                <mxCell id="zH2k-DtikKzFAa1dBs3I-23" value="Micrososft Entra ID" style="whiteSpace=wrap;html=1;fontSize=16;labelPosition=center;verticalLabelPosition=top;align=center;verticalAlign=bottom;" parent="1" vertex="1">
                    <mxGeometry x="130" y="153" width="330" height="117" as="geometry"/>
                </mxCell>
                <mxCell id="zH2k-DtikKzFAa1dBs3I-22" value="" style="aspect=fixed;html=1;points=[];align=center;image;fontSize=12;image=img/lib/azure2/identity/Azure_Active_Directory.svg;" parent="1" vertex="1">
                    <mxGeometry x="175.5" y="126.25" width="34.45" height="31.5" as="geometry"/>
                </mxCell>
                <mxCell id="zH2k-DtikKzFAa1dBs3I-16" value="App Registration&lt;br&gt;(Create app role)" style="aspect=fixed;html=1;points=[];align=center;image;fontSize=12;image=img/lib/azure2/identity/App_Registrations.svg;" parent="1" vertex="1">
                    <mxGeometry x="170" y="169.88" width="29.66" height="30.12" as="geometry"/>
                </mxCell>
                <mxCell id="zH2k-DtikKzFAa1dBs3I-19" style="edgeStyle=orthogonalEdgeStyle;rounded=0;orthogonalLoop=1;jettySize=auto;html=1;fontSize=16;startArrow=none;" parent="1" source="SMz4XB6f7DllCZFsXufv-1" target="zH2k-DtikKzFAa1dBs3I-13" edge="1">
                    <mxGeometry relative="1" as="geometry">
                        <Array as="points">
                            <mxPoint x="540" y="431"/>
                            <mxPoint x="540" y="431"/>
                        </Array>
                    </mxGeometry>
                </mxCell>
                <mxCell id="SMz4XB6f7DllCZFsXufv-2" value="" style="edgeStyle=orthogonalEdgeStyle;rounded=0;orthogonalLoop=1;jettySize=auto;html=1;fontSize=16;endArrow=none;" parent="1" source="zH2k-DtikKzFAa1dBs3I-4" target="SMz4XB6f7DllCZFsXufv-1" edge="1">
                    <mxGeometry relative="1" as="geometry">
                        <Array as="points"/>
                        <mxPoint x="420" y="431" as="sourcePoint"/>
                        <mxPoint x="588" y="431" as="targetPoint"/>
                    </mxGeometry>
                </mxCell>
                <mxCell id="SMz4XB6f7DllCZFsXufv-1" value="Read&lt;br&gt;Write" style="aspect=fixed;html=1;points=[];align=center;image;fontSize=12;image=img/lib/azure2/identity/Managed_Identities.svg;" parent="1" vertex="1">
                    <mxGeometry x="359" y="414.5" width="34" height="33" as="geometry"/>
                </mxCell>
                <mxCell id="_VQj6Xifrk6xAAOt1aUL-1" value="" style="whiteSpace=wrap;html=1;labelPosition=center;verticalLabelPosition=top;align=center;verticalAlign=bottom;" parent="1" vertex="1">
                    <mxGeometry x="131" y="610" width="300" height="300" as="geometry"/>
                </mxCell>
                <mxCell id="_VQj6Xifrk6xAAOt1aUL-2" value="Push" style="edgeStyle=orthogonalEdgeStyle;rounded=0;orthogonalLoop=1;jettySize=auto;html=1;fontColor=default;fontSize=13;" parent="1" source="_VQj6Xifrk6xAAOt1aUL-3" edge="1">
                    <mxGeometry relative="1" as="geometry">
                        <mxPoint x="323" y="692" as="targetPoint"/>
                    </mxGeometry>
                </mxCell>
                <mxCell id="_VQj6Xifrk6xAAOt1aUL-3" value="Github Actions" style="shape=image;verticalLabelPosition=top;verticalAlign=bottom;imageAspect=0;aspect=fixed;image=data:image/png,iVBORw0KGgoAAAANSUhEUgAAARgAAAEYCAYAAACHjumMAAAydklEQVR4nOydDYgdV3bnT82IpRIEWwKz8wxGLtUYRmaGdos4WGJadDWuME9kBrUYZ2WPO0hiJm2JJFgGx6omztZ9xLNd9jpIZj1Y7jhYYtuxRBzUghn0ZrdCV6c1SCYe1O51kMKa55IwzAsYpnZXJJVFUMvtvs9qtfrj3Vv31sd75wdNHM2rW7f7X+/Uueeee84W6AFMPzUAYDf7+QYA1Og/s5+1SADgKvvvGwDwzwDQjFztao7TRpCeRyt6AjwYjrcTAB7TLXtQt2z634+wH13ibT4HgE8BIEpa4adJK/wEAD6Og0Yk8R4I0heU3sBQo2I45AQA2Bt4JHmwAACnIlc7W+AcEKRSlM7A6NbwVt2yn9Qt26Y/APAtACjTUi6my6qkFQZJK/xZ0go/Slpzd4qeFIKUkVIZGNNPDwPAJIuhVAXq2bwQuVpY9EQQpGwUamB0a3iLbtlDhkMOAcDTkmMpeXM1Dsg5AJiLg8ZC0ZNBkDJQmIFhOz/vA0C9qDko5EzkakeKngSCFM1Xirip4Xi7AeCzHjUulMOmn84ajldkUBpBCic3D4Yth75vOKTeA8uhbvkCAN5pT9k/SVpznxc9GQTJm9wMjOmn7zPD0o+0AWBf5GoYm0H6CuVLpNr47PdNP/2sj40LsF2xa2zZ9O2iJ4MgeaHUgzH99CQAHFd5jw1YeRxgNTsL3Aqn83omcrWZgu6PILmhxMAYjmcaDnlLcRA3BoBP6E8ckPaKM0VRt2n9huMZzNDQn68bDnmEGZ9B1VnDSSt8M2mFfxIHjUTlfRCkSKQbGJYs967scVewAACNPDwA00+fZx6YKmMTxQHZEweNtqLxEaRQpBoYw/G+YzikKXPMFVDDMhG5mqrx18X000MAQBQZmtORqx1TMC6CFI4UA7NiC/qUxNgGXTo0k1b406QV/m0cNGJJ4wpjON6w4ZBRVhbicYlnpGbigDQwAxjpNaQYGLaUOCVjLAZdOhwo8xfO9NM6y0Q2ZI0ZB2RXmX9nBOHlq1kupp7LQyeiPwaAVwDg32WcC/VYgjggL7anRo4lrblSxyXioPEpALxBjeGWbeZ2GZ4bOz3+i7L/7gjSLZk8GMPxDhrO0gG/rNC39kjkaoUvg0Qx/XQSAFwZY6Eng/QKwh4MC+ieBoCtGe7/OQD85/aU/cdf/M2RyhoXWPZo/g4A5nTLTthWt7BHxzyZv01ac7flzhJB8kXIg5G0FR2zLdobGccpHZJ20+jf51HcwkaqDPdRAXZCOKtxoV+aHb1oXGDZm/k5ABxgcSVRDMMhByVOC0FyR8DALGXoZmGmPWXbVY63dEPkajNJK6yzDGNRXjYcz5Y4LQTJFa4lUsazRX17Bsf002vs+IEoI1iSE6kiXXswtfHZ72cxLkkrHOtH40JpT9nfo55bhiEuGY73mMQpIUgudO3BsJILIqny1HPZg7VQMgfHZyJXOyB5SgiilE09GN0a3mL66QVR48I8l743LrAclzmTtELRXJnvmn76nOQpIYhSujAwNl0ajQqO/0x7auRvBa/tSdpTI68CwBmBS7cAwGnW3RJBKsGmSyTTT6lLf1hgbOkuPTv/89yKei0xywKeiwNypkrtXTMsOd3I1V5VMCUEkc6GHgyr/i9S6rLdnrKlpM0bjvckXaKZfvorALjEvKnOF9NgLWU9wyH/y/TT2dr47CEZ91VN0gp/JJgnc5QVykKQ0rOuB8P6Fn0mcFqYehU7ZOS5mH5KqPEQuHSBncYutUeTIeiLfZeQSrCmB6Nbw1sESxF8HgdkjwzjUhufPSloXCiDhkPmTT89UeaYReRqZwBgWuDSw1g8HKkC6xgYe0iwnu6bMtL/TT89qVt21mLhDwGAbzjkepl3X+KA/JnIdYZDfiR/NggilzUNDOsVzctCe8p+O+uEDMf7joJOBG+afnrJcLxhyeNmhi3jRgXiMXWMxSBlZ80YjOmn/8rZeZF+OR6UFHe5kGFbvBsacUD8slXzF4zHYCwGKTX3eTDsQedt6xpKPLyo+nCfZzhkUvE9uGHxGN6g9CgLxiNIKbnHwOjW8FYA4P7yxcFS4anMmH76tMwatxtw3PTT66afero1/FAO9+uKpBW+w3kJ/VtlPd2OIMpYZWDsJwVqy0Zx0LgoaT55BmN3AgCpjYfzpp8qbbLWLUkr/InAZU+zGj0IUjpWGxje5UkSB0Rmtu5uiWN1C/1yflYbn32r6C8qa81yVODSJxVMB0Eyc0+QV6BuidTjAKafprLGysDTkaudL3ICAscIzkWu9ozCKSGIEF96MCwh7Vs8Fyet8KdKZtUdYdIKxzJWjFuLadNP3zcc75BuDfMGu6WQtMIPOC8ZUjQVBMnECgNDTvB2KkxaYaEnpdtTI+9FrvYoAIywIwoy2LIc1yBnauPhBUljcpG0wp9xXvKQ6acqt/YRRIiVMRje+MtCGdq5wvIWbyh44nsz6nTZaDierHa43SJSP6d0SYQIsmRg2PKIN8A5oWZKYkSudjEOyINJKzyVsZr/agYNh/yD6acndGv4AYnjrgsz3Lw1Yw4XtaRDkPXoeDC89V4XIlfL2vdHOnHQaLenRl4AgEclx2aWzjXlvKXd4Py8oVt2aQ92Iv3JkoHRLZu34j3vw58rkatF7Sl7LwAQALgqcWj6Bb7OzjUpPc1MfwcA+ITzsm8qmg6CCNExMDxvvrgK3QGS1twXkas1IlfbQ70PiUPrywcNyWXTT4nheCqXJR9xfv4RRfNAECE6SySeB5P3rVo4katNxAEZAQDZ2+qe4ZBZw/EOsho6UokDwhXsNRzClWaAIKrpCwMDy/GZMHK17wHAEclB4N2GQ87VxsP/JnHMDh9zfr4056oQhPIVdhq3azc/Dkilm7GzU8sqtrSfZrWDZR7W5P1b572djiAb8hWB8z+Vb1gfudr5OCA74oAcFyiRsBGjAHC9Nj4rJQCctELeuaGBQUqFiIH5Z0VzyZU4aERx0HgjDsgeAJDZ97mmW/abMgZKWnMJ59x000+z9MBGEKlQA/MNzmtKXamflzhotCNXG5F8rmnQ9NO3JAV+eeeEXgxSGr7C+0CWvRWIKCvONZ2SNORR3bIflzDOP3F+voiSFwiyJl/hPCJQqjq2KmhP2X8SB6QOAKcB4HaWsXTL/l0JU8K+3khl4TUwMrNiS0nSmrsTB42fR652LA7I72Q5pc3av+TNwwXcE0HWZNPm9/1MHDSoQd2VIe4k49wSrweD5TOR0oAGZhPYuabfZueaPue8PHPAVWK3BgTJHTQwXdA518SWTDxg+QSkr5F+fqYX0a3hrbplf99wyIucl95RNCUEqQRoYDaBpf5fEGwIx7ukWuv+GFNBKssWtvXcrSvfNwWNDMczdMv+QwB4MUMzOBmJe7wGpud3+pDqsIU9kN2+nfsiS9T00+MA4GXtMhkHRMYRBN45/JuEeyKIFLiDvPTNrmYq5cD0U2pYTkpqYSsjSQ7PFiGV5St41mWZ2vjsftNPr7DtaBk0k1Y4J2Ec3sQ5mQc3ESQTWwROR9d6oWRDB+qRGQ4RDeKuRztytX2SxuL1YPBoAVIaqIFpsnhDt3y9F96SrA/1d9jWs8xatknSCkX6S9+Hbg1v5TQwtzExDykTWyJXu2r63beENhzySByUuqnApph+ehAAzikYmnoPR9pTI1K8CN2yeQ3fFzLuiyCy6AR5efI1KrtVbTjeE6af0uXQtOSh20krfDEOyJ7I1WQuUXhr9fTM0hXpDTqJdp9yFIyu5K6G6aeEcynYLU2J8ZZ7MBzC+7fuyVo9SHXpGBieB7NymaWmn54EgOMKhg7jgDyjYNwOXH/rqhdkR3qPpSVS0go/5bnI9NPnlc1IEro1/JDpp57pp9cVGJerSSscjVxthPWRVgVvdTrcQUJKxZIHk7TCT3SLa5eWfmHfUDarjLDC1xcUeFvUQ9gnOc6yJux34J0/bx8lBFFKJ8j7S87rTNNPDymYTyYMx9tp+um7AHBNsnH5AgBIe8r+7TyMC2OS8/NRr9ZLRqrLkgcTB43PDWepTSlPUJEAwFl1U+PD9NPnWB1d2URxQEby/PKyHJ0652Wl9SiR/mXlWSTeavqm4XjDkufDhW4NG4bjPWf66SUAkNKLaAVR0gr/KA7Io3l7BgLFwpM4ICryehAkE9rK/8f0019zHvI7FbnaC7ImY/pp9xl/ywHNREGbDjrmMdZithCYweTxYK5GrrZH4ZQQRIjVBaducH5hi+zBoyof53DkaucVjd0tuHuE9AT3lGtIWmHAef3jpp/yxgo2orBzNEkrPB0HZEfRxoUFqblKRUiqO4Mg0lltYH7GeT31gN43HE9WcesivigRAOxoT40cK3oXxnA86pUdFrj05wqmgyCZWW1gPhJwtw3dsp+VNJ+3JY3TDVdXbD2XYntXt2yRrX9fcbIfggijrf4H009tAJjlHGchcrVdMiZk+ulnORxH8CNXm1B8Dy5YcfFfcbY6iSJX26FwWgiSiftKZkauFgoUjh40/ZQ3MWxNklaocrt1hp14LpVxMRyvxjKPeYzLHQA4onBaCJKZr67z71t1y+YN3g4BwFzSmsu03NiyzfxH3bJ5+w9tBl1CPBO5WiNpzWVuJSKb2ng4L7Bz9Pf091E0JQSRwnpFv4VqyRoOOZhtOktZxW0Fb+bDkavNSB5TCobj2YJb7rhzhJSeNQ1MHDQWAEAk0WzMcLzvZJ1U5GpnklboZxzmRhyQw3FAHoxc7WLWOanAcDzdcIhIjZokDsh7CqaEIFK5L8i7EtNPZwWLYR+Q4TGYfjoKAO8L9HieiQPyTBw0kqxzUAnLeRHZlm5Eriar+wGCKGO9GEyHOd2yxwDgNznHHdUt+/LtX569mWFu1JO6QY2Fbtn/jxmZBzZY1n0BAP89Dsjx9tTIj5PWXKn7QtfGZ3+4ZZv5nwQu/ShyNVlpAQiilA09GFh+y04CgCsw9o3I1R4Vm9baGI5nGg6hb/zHWLYr9VA+BICFOCDNsnssHVi/6esCnhksL/sapTnFjiAbsamB0a3hh2rj4T8INlxbaE/Z3yvjzk1R1MZnv61b9geCf8+wPWXvS1pzlTCkCLKpgYG71dWuCd5jJnK1A4LX9hwZEgnbkas9qGBKCKKMrnpTsypuotuio6afigQyew4W1BXNUi7lNjuCbMRmQd6VfKpb9g/WKPHQDaO6ZSe3f3n2FwLXVh66LHrg9878fYb2tFF7yj5y59c3/4/kqSGIUrpaInVg28YXMtzvTORqfZXezgK6VwRjLsCykHdgS1ikinS1ROoQudpM0gqzlKY8bPrpZ7Xx2SczjFEZauOzP2S7RaLG5dM4ILvQuCBVhcvAwPJhxD/J2EHQ1C37p70clzEcTzf99F3dst8R2YruEAfkxaJr1CBIFnhiMEuwBLbzumVvBYDHBe+7BQBGDYc8AgDXktZcz7yhDcezDYf8Jf39MgxzGwBeak+NYL4LUmm4YjCrYY3ks3yROoyW9bxQtxiOVzMccklSreDS1atBEBG4l0griQMiq1zAuSovmUw/NQyHvC/JuMRxQLDHEdITcC+RVpK05toAcFG3bJudExKls2Q6rFu2vmWb+Y9VyFY1HG/QcMiJLdvMcwDwiIQhL8cBGWYlKxCk8mRaInVgXzTRTN/1OBq5Wp41ernIcBJ6PWLW5A2NC9IzSDEwcNfI0GXCTlljsu6KH7BuBwtFFrc2HM/ULft3dcv+Lqs+x9VaZANuA8CbdFmExgXpNaQZGLgb6Lwu8cu3mjOsFkpuW7fsHNakQK/objkeuRrGXJCeRKqBgbtG5iAAvJwxLrMRnwDAR3Gw1LD/YwBoJ60wyhK30a3hrbplPwIA3zAcMsjODO1W2OHgU5bnUundMwTZCOkGpgPLB+Ftf5KVkLW//acV/Z0WVmbCstR9k3lZ1JA8zP6vqla0axHHAdmFSXRIr6PMwMDdHkuXsmSz9iDUqJQi/Z/pY68o4LV7Ha2osW6z4l4Ra7Z/o4Ap9x1V10ipgYFlT+YxwyEEAL4reBK7V6Diz7Sn7B/nXYCL9V36tuGQx5mntlPC0i9mS9VP4oBcpQ82K3GKCNCrGik3MB1MP30OAE7ndb+SEUauNpL3Tdly8KSkbOtuoA80waB19/S6RrkZGFi20jsNh+wHgKM5tIctAx/FAXkzaYXn80ocNBxvULfsZ3XLfqrAvzF9iD+IA/JB0grnqpA0mSf9pFGuBqaD4XiG4ZCTkhPVygQV69W8W4soSP6TAXXN95Uh5lQG+k2jQgxMB8Px6JrzRyzHRLRmSlm4AwCX6XIoDsh7cdD4NI+bUmOtW/bzumUfV5h/lBVqcK8mrfD19tTIz4qeTN70s0aFGpgOKzya0RILsBERAByJXC3Xdq6mn9IH1qvY36wSTfFk0e8alcLAdDD9lIrwFgA8XfRcOCiktILpp88DwKm87yuJviidihqVzMB0MBzPBIAnDYc4ADAEAA8VPSdGwvINFuKAUG/l53mfj9Kt4a/XxsNXAOCpim/7X40DcjwOGh8WPRHZoEZ3KaWBWQ0rNj7MgmNFuJp0CfRGHJBzRR5IZB7etR7agaMGew9ri9MToEb3UgkD00G3hnXdsncCwDeZdyMzGn+b9be+QQ1KHJA281Y+LkNKf218dr9u2ad7IBi+GvoAN9tT9jFWX6iyoEb3UykDsxKWQs171ulqJ1oOAP/G/i1cfV6pbLAT3VdyOHIRrVHQvSa5BMd6VLoDKGq0Nn1lYOKA1OOg8XN1s5KLbg1vrY2Hf84SE2U9uJ04UsTSx5dOo2+WQs5S2elD/DXdsgfpD4uPbZU0L2BHKSrlyaBGG9NvBsaNg8ar6mYlF9NPTwCAL2k4+tCeiwPSkLXkY+kFxwHgeYmxsUp5MqjRxvSVgQGA05GrHVM0JamwYGGWpm0rocu/ZyJXa0oY6z7YEZC3MrTGXUllAr+o0eYaZeoqUEGcoifQDbo1nLXdbIerSSs8HAfkQVUPLix5ho0bkauNxAHZkbRCnz2AotBlxhXD8Z6QOEXpoEbdadRvHgxlJO+MW14knFdps7MlhXgB7M1+idUuEeVq5Gp7JE5LKqjREptq1G8eDOWkbg2XtgCW6aeHAGBM8PI7AHCmPWUXusSIXC1uT9nfAwDCtv9F2E2/xIbjlU4r1OhLNtWoHw3MoG7Z3yl6EmtB18mssLlo9ufLkasdSVpzheftJK25LyJXa8QBEf0iUg6zThWlATW6jw016kcDA4ZDynZcfgnDIX8qeOkXAHC8PWX/heQpZSYOGhfjgFA3ekZwiNHa+Ox+ydMSBjVak3U16scYTIddZdqpYJXNPhO5Ng7I4TholL5RfoZe5oVUBFwNarQha2rUlx4M42TRE1jFu4LXUSN5XvJclBAHRDQHaTcLShYNarQ+a2rUzwbGptZat4ZlZjkKYfqpJ5CfcAcAfOraVqW2Shw0rsYBGRUIKurUWy0yOI8abcqaGvWzgYHltWP4wyInwEpTiJTW/GnkahNVeXA7sEZzrwtcOqhb9rCCKW0KatQ192nU7waG4hqOlyUXIBO6ZYsEMOM4IC8rmE4utKfsn7ADp1wYDnlKzYw2BjXqntUaoYEBqBkOuWI4Xp6dHb9Et2yRgNqROGj8o4Lp5ELSmvsCAPYJZJMWZWBQo+65R6N+3kVazQ1WhzS3nSV2PuQa5yncZuRq+xROq2tW1Od5mP3T/05a4UdJa66r9XttfHZSt2yX87bH8+y7hBpl06jK5fxk03mQduVlZAyHnOA94h8HpBTN69iOwewaPb0jADjQTQpA0grfFnh4CQDkaGBQoywa4RJpFYZDRLciRRBxvecUzIMLVnfk2hoPLrBSkbPdLDlZSQLec2EGy6bNC9Qog0ZoYO5n0PTTX5l+6unW8AOqbsJOovLmdhzPu8j4auiDazjkbzapOWsYDnmrm3NEcUCOsVIFPORy0ho1WiaLRmhg1oZaf1IbD+cVJnjxBpXbRfd8Nv100HDIdVYlbTN2Gw7ZtP0Mq9LG9XsZDslr1w81yqgRGpiNoW7er2rjs2/J3mUyHMI7XiDz/rzUxme/z+qf8Bhcr5sPxQE5xZnY9S2OzwqDGt1FVCM0MJuj65Z91HDINdNPL0j0aLjiCHFALku6Lzf0rahb9rRAzdmuWnewJQXP75eLgUGN7iKqERoYPkYB4Nemn16vjc/+V8PxDmYIOPJ+SQppULbirSiSpt918e6kFfLs3Bmmn+YR6EWNViCiEW5Ti7FTt2z680ew7EoDO+r+MTvY1k1AjCuAnGd+TgfWikPkrdjhXLcfpA+vbnEd9amzHlYqQY1WIKJRPxmYBgDsFwjcdcuo4JZmN+T+4LJtztmMrTh4AoP/zDn2SdNPy3QiHjW6H6OfDAy0p+yna+PhOYVGRhVd5yEYjrdbt+z9rCeOzrypG3FAprtNXV+xzSkcb0pa4en21AhP1TbV3ohqUKP7eaKfjgo0IlcjkK2oTlEciFxt02pjpp8+DwCn1vmfu2o1wVzu2Yw9dBZEShSYfppmuGfRoEZr3KMvg7ztKfv3WTpz4XVRu2TTmI7pp3UAeGWDjyy1mmABwTUR3OZczQcZ6p9U2YtBje5nsC8NTNKaux25GvVodmSoQ5obm7VZYdmYl7poEarrlj3N3oD3kGGbcyX0rfj7GeqfVKZl7GpQo7XpSwOzkvaU/UwcLBUB/6TouWTg2xyfXXpLmn56slPNL+M2J7AErONVqtxWAH2pUV8Fedciac0lSWvuLACcNxwySUUoek4CPMT5efqQHq+NL710z2bc5gTWiqPQFPkK0Jca9b0H04Fa9cjVXsjYrU8JCs9DHZWwzUld7rclzqmSoEZrgwZmFZGrnY0Dso0VPn5H4BSpCjbbVv9UcFy9wGDhWnSVtl5SUKM1QAOzBnHQiOOgcTFytT+IXG0b82qKNDSbifrLAuaXNVi4FlU2MKjR/YRoYLqAejXU0MQBGYwDQl1WHwB+yra57+QwhQ3rn9AHKA7Ivhx3YWS/FSHnIlIqQI3uJ+77IC8PcdD4GAA+joPGl/9mOJ7Oal8MMlf2sS5dWp5DHfUu5naVrtcNh6jedlfxVgRWg4eHKIc8JtToXng1+hgNTEaW30yNkLesoOmn/7eLnIgvP244Xi0OGhu+/Vg/m1HDWaoJy/swbMZtAHg5DsjbirY5H+P8/JHNck+yghrdB69GIRqY4vics94IdcEvbvYh9gCDgrek0m1O3ip1qo0LAzVagYhGGIMpDt61eNfBNfYAn+Gf0rrksc3JEzzM64gHanQv3BqhgSkIzuI99O3BVYgjcrUjbKs9a1BRerBwNaw1K88J91zOLKFGdxHVCA1MQfA+vN0EEVdD35Js10sUVcHCezAc4nEmkuVSewU1uouoRmhgioO3vKJu+ulbvDdhD7DIW1L5WxHunjDetLL9SuKAfKRuRveAGmXUCA1MQbBWELyxhKPMVeW9F+9b8kzkar+n/q24dML4fYE0+F8omtI9oEbZNUIDUyy8LTlBt+wfityoy7dkm34mcrUjIvfgRbfsgwJp8DObbQVLBjXKoBEamAKJXO08r1vcKTQuAnuAR9Z5K8dxQA50tlDzQLdskdjDCwqmsi6oUTaN0MAUz1XOzxumnxLRm1G3nxXaOgAAp1nBrWPLRyEavHMRhhVU4u3QGEWuVkQVQtSoe+7RCBPtCiZphTO6ZfPWB/Zq47Pz7amRvxO9L6sfW0g1P90aNll1Ny6SVviBmhltel/UqEtWa4QeTMEkrfC8yHW6Zb8ufzb5UBsPPZE0+aQVvqdmRpveFzXqktUaoYEpGLYLcJhVlOdh0PTTC6w3TiXQreEtpp+eAIAxgcvPFNHYDFAjHu7TCA1MCYhc7SwAvCpw6ajhkOtVeYBr4+EfslIXvEvzOK9dk/VAjTZlTY3QwJSEOCC+YOFxw3DI35T5AV4uaeEdEtnyhWW3e70+QrmCGq3PehphkLckMDf8dcMhIgfghuhbEgAezTlHZFNYvZwrGbppxkkrLEVBcdRoXdbVCD2YcnExQ1lF+pbkTlNXDTvDkqVVbyMOGmWoi9wBNbqfdTVCA1MilmsBL5VVFH2AR00/vVYbn31S8tS4MRzvm6xF74uCQ9wBgOORq5ViedQBNbqHTTVCA1MyWCJVli/VoG7ZQZZEr6yYfjpqOOQy6/8tugz/oKy9llCjL9lUIzQwJaQ9Zf+FhAQrz/TTX9fGZ/9c5PAdL4bjGYbj7Tf99BIAXMjYaiNqT9kvS5yedFCj7jTSMtygUEw/tVlDqm5pRK5W2BtDBOpKZ1wbr+R05GrHJI11D6afPp/xjb6SNgA8GrlameIu64IabQwamBKjW8PfqI2HocTi0AkANOOAhOww3YciOxqG49Ev1BOGQ4YAwJE5v6QVPt2eGsntMF9WUKONQQNTclhL0lmJb8nV0Ie4yYor0f9eWPlmMv10N3s4h1kbD1XzoF+sPZGrFZKtmwXUaH3QwFQA9gBfV9DmokycYr3BKwlqtDYY5K0A9G3VnrLtvGrR5gx1/0l7yv6zoieSBdRobdDAVISkNfdPkavtKur4viJusGBhI2nN3S56MllBje4HDUzFaE/Zv0/fJgU348/KHQA4056y91Vlt4gH1OguaGAqBn2L0LdJxmzSovlR5GpHktZcEdXplIMa3QUPO1YUlk26AwD2Gw55EQC+VfScumA6DsiPWbX+ngc1QgNTadgBs7MAcN5wiAsAJwTaS+RByJrV96THshH9rhFuU/cQpp8ektzvWAaELheKnkRZ6DeNMAbTQ0SudjYOyG8krfAw28koou5IAgBXk1b4YhyQHWhc7qXfNEIPpscx/fQgK4Go+jBdvNxwi7zaLzEWWfSyRhiD6XFY47DzhuPtBIAndMsepD8s4/QhANgqMOwXrHTkjTggC8sN2Bu8fZwRRi9rhB5Mn8Oaa+1kP/9+jXMsEQDcZP83ilwtLGiqfUuVNUIPps9hB9d6Mb29Z6iyRhjkRRBEGWhgEARRBhoYBEGUgQYGQRBloIFBEEQZaGAQBFEGGhgEQZSBBgZBEGWggUEQRBloYBAEUQYeFehzqnzOpV+YaPJpNFkvj0ZoYPoEWSd1TT+FspzU7TWGxpY12j5gDz48IK7RRPNejeanlzW6PI2nqbsGT1N3Ry/XGukVJpr5ajQ/TV69PJ2PRv1kYJQ1Fi8ThuPpumUf1C17FAB2F9BpsFMtbSZphRfjoNF3dXg3Y2jM07cP2AcfHihWo5uL4cytxfDi5Wl1GlXZwBgA8GuOS8LI1UYUTqlw+q3eaxWZaJZTo8m6Go0qa2Bg+QuVcnw8jlxtm8LpFAb1WvqxYn2VoF7L3rHyazRZl6vRV2UOljeGQ45yBMCoqD9JWnP/onhauWE4nkGXQ4ZD6BvxP5Y4aG8CwHHDIY8AwPWkNfdF0RPKi6Exz6DLob1j1dBo79iyRrcW5WhUdQ/m2hpbdusSB2QPa4ZVeQzH22045BL9z6LnIsDhyNXOFj0J1QyNebv3jlVXo8l6do2qnmjH6849pmgeuaFbw1tNP/UqbFwo75h++q5uDaveNSmE7QPDWyeaqVdh40J5Z6KZvrt9IJtGVfdgJgHA5bik8jtJpp9eAIDRouchiRsAsKfXGuBPNHtPo8m6mEaV9mDigPDu5e9WNBXl6NbwN9iSsFceXGCZqddNPz1BPbOiJ5OV7QPD35ho9qZGE830BPXMeC+utAdjON6g4ZBrnJftqNpuBtuSv15AvkSenIpc7YWiJyHKRLM/NJqs82lUaQ9GIAYDVXu7MOMyq/DBpX/D0wBwBABGAGBb5Gpa54f92wH6cClunXGUnYuqHMy45KrRZF3TOj95asTORXVNpT0YWP4CXgKAOsclcXvK3pG05kq/7qfLotp4GEp8cBMAaMYBCdlD+2EcNLh7I1PPEQCeMBwyBACOzPklrfDp9tTIRUnjKYcui559Tb5G89N3Nbo8za/R0NiyRnvH5Gt0czF8+q9f6k6jXjAw1CO5wHNNHJDDcdAo/TYp7zb8JigLcJt++jx7e8qAfpkerUrgl8VcpGk0WVej0URTvkbdBH6rvkSCyNVmAIArt8VwSKmXSWwr+oKEBzdOWuErcUB2qNw9i1ztjTgg2+Jg6e/azDgcfdNe063hr0uanhLYVrQUjW4uhq/MT5MdqowLZbKuvTE/TbbNT8vTaPvA5hpV3oOBuzVNeIO9u1hLztJh+qkHAFlPfhd2epx5le9mzAE5F7naMxKnJZWJphyNJuvFaDTRlKPRZH1jjSrvwcDd3r2fcF52wXC80iV6GY63GwCOZxhiIWmFTpGlKahXGQdLa3/qXd4RHOYptvQqHUNj2TW6uRg6RRkXWPZoZuans2vEll7r0hMeDIi/9aM4II/GQSNRNC0uDMczDId8luGtMhO52gHJ08qEQDLkal6IXE1W7CAzQ2OesXcsm0aT9XJpNNHMrtFkfW2NesKDgeXArchyh3owwwqmI8r+DA9uHAekdFnKcUAaGbdOPWp4JU4pK5k0mp8un0bz09k1ooZ3rf+h0qepV3Fz628d/i7vdpxu2Y8AwHtJa07UTZQCK7lwBgD+g8Dll+OADItsOauG/V3PJq3wU92yqUv+m5xD6HSY2788O6doil3DSi4IazQ/TYZFtpxVc2txWaNbi+GnDw+Ia/Q//8f9GvXMEgmW3XHqkXwmcGnhSwvTT+nyzhO4NGbLvNI9uKvJsJ1dilo+E01xjeanyaNlNC6rybCdHU/W79eoZ5ZIsBxcjFjQipfR2vhsYQFFVonuhMClM1UxLpT2lP0Tttbn9RYN00/fVTStrmCV6IQ0qopxobz3krhGE837NeopDwaWlxq24RCeWr0dEnayN9eta7Y0+leBSxciV9ulYErKYcbiMO91cUB2xUEj99QCtjQS0miyXk2NmLHg1mh+muy6PH1Xo57yYGBpzR9eZuc2eKHryCu18dnvK5jW+je17IMi1yWt8EX5s8mH9pTdYNmgXOiW/ayaGW3M9gExjW4uVlej914S02j7wL0a9aCBmbvDslZF2jLoumVP53nojlX/56XRnhr5OwXTyYWkNUeXsvt4r9Mt+yk1M9oYVv2fl8Zfv1RdjW4timn08MC9GvWcgVnBOcHrqCczm6OR4a1RE/dCfye2FOUtX2qyQH7ecGtUZBKdLCbrYhpNNO9q1LMGhgUURdfrBgBcq43P/qnkad0Da4rGta2etMI31c0oX5JWKLKUPalgKuvCmqJxaXRzsXc0urmYTaOeNTCscv1IlgQi3bJfMf10VmGil897QdIK/0rNVPInaYXnWbdBHkYNx8uzqBO3RrcWe0ejW4tiGg2NLWvUswYGlt3wOA7IvoxZiku7UobjHdStYWn9bFivaF53/3QvdUpkRzSeYTt4PHxb0ZTugfWK5tZIZafEvLk8nU2jnjYwsPwQtyWk0A8aDjlXGw+56s5swhOcn0+qXrB8LSJXa/LGywyHPK5uRvfArZHKkgtFMVnn12jv2LJGPW9gYNnIXGW1SrImO9VNP/216acXDMfbn2Ug3bJ5g8hZa3iUFnZeiecNmUsAfvsAatSBnVfi1qgvDAwsG5mLcUBkRPaN5TgAmTH99DNW+4QbXgPDylz2JGzZx7OM3alwOl/yMKeBYWUuexK27OPWqG8MDOOs5KLIdH1+gXo0pp/ybmXyBip7Zl2/Djy/X15b1ajRvXBr1FcGJg4aSRyQPYLboxtBvZgrpp9eN/30Um18dtJwvEOG4z2+QVGrhzjv8aGEeZaWOCBc+Ramn9rqZvMlqNEK5qf5NJpopnZZG3ErY3nnonHM9FNd5KzFJlC3cKdu2XXduvv8G87Syixa9QbgaWIViR5onGimdQB4ji3tYgB4mwXtMjM05g3uHSPPr/Ao5uanyWnBg30fc36e/oGFlyTsfNFuptlqT+Vr7N+5NKrKgcYMcGvUdwamQ+RqRwzHe8NwyF8CQB67EmYG157LIGwfGN6yfcD+4d4xcniNLNTRiWZ6dX6anLm1GP4VqwXCxfaB4a8/+1r4CvPcVm7d29Tg7B0jp997yf7xrcW52xzD8n45hfqMM6NIDe5TAPCAyBjr0LMB3hVwa9RXS6TVxEFjIQ7I7yhuViUDLtd7+4D9LP2Sb5Divpv+76sPpnXLs6+FrwPA06uMSwfqKbnPvhZyZUHHQYP37Bh38iMzLtcA4Khk4wK9vjyC5UAvt0Z9bWBg+cGOI1fblbTC4wIZi3nBFTzcO0a6Kkjd7edWwlLnv9vFR492sjk54Pk9uWMwe8fIf+G9hoNeD/B24NKo7w1Mh/bUyBsAsEPgcFcedO1hsdae3W6vDvK2AmWp890srY29Y+Qo59jKvqTsAJ6javwKeMGy4NIIDcwK2NGCA1mChyrg7HLI+2bn/TxPHKlMBdWVJud10+WwH0EDs4o4aLQjVxuJA7ILAN4ROINRNLyxia4/PzTmSTuLVQCVbKxfddDArEMcNBYiV/sDAHiwYjsEvN5X159nB9943tRlikv0yxKmVKCB2QS6PIlcbR/1aJJW6LMHNVevhiepjCVDfd7lxz/nTZ7iKF+QzE+TNzjHVlaGgaXxK1vGTDRzSfwrA1waoYHpEurRtKdGJlih7QdF6oRkoOtlDPMy3uny4++wz3fNZF17tctypDMriz93Cc8ZI66xL0834gxVDruhTM3hVMKlERoYAZhXMxEH5DfigAzFwdJ27xn20KvI5uQKlr73kv0XrLfNem9s+u+n2Oe4ubkY/mgDI3OHGpf3XrJf5hlToIgU99+ZFbIWaWvTDWUKaCtBIO2g3beZvDJgBZN+QX/ioPHlv9Mvi+EspaE/wZLdjIxBRi73+9bi3O3JuvYCALww0UzfYollHU5nrVny1y+N0N/50YlmeoL10Om8vSP6/0/WtfMCw/KekOZObLu1ONeerGsH2Nb8+5JPZffDEolbIzQwClguctWY2ehtafppyjGksHFixkRJESS2XHpV0nBf4/y8cDxlsq4tDI15u9hZJH2tmNpkXQsnmvloVCG4NUIDUxxf8KSrG443WETTsbzIuwDX5elGcnm6sdkOGpdGQ2PeoEDcqTKIFODCGExxfML5ed7yjZWC08DEkauJ9L3iBTVaAWcBrniyrt1AA1McXF8QwyFD6qZSLKxrA8/vx/vFF4VLo71jvavR0JiYRmhgCiIOCK8rrfIcTaEYztIuHE/tlVwMzPw0atSBHYzl1ggNTHHwPrw100+fVzSXwmDtW7h+L97qdxng1mii2XsasfYtXL9XJ4ETDUxBxEHjQ4GdkFMKm8AVguGQtwSS1HKpvXJ5WkwjtpzoGfaOiWuEBqZYRJK+eiahi9Ur5s0fiQWKU2WhrzUaGhPTqFOcCg1MgcQBeZX3XJPhcNdYKS26ZT8ncFmuTeXnp/k1EqiDU1q2D2TTSJM7HYQX00+vbFDacj0ORK6mKuU9F0w/pS73r9Ypu7keceRq2xROa00mmmIaTdarrdFEU0yjyfpdjdCDKZikFYocwHvXcLxvKphOLujW8AMAcInzwaV8oGhKG3JzUUyjobHqarR9QI5GaGAKJmmFFwUuMwyHvKJgOrlQGw//UMAjoEvKQgzMrUUxjfaOVVejZ18T02h+mqCBKROsbapIXOG7pp9OGk61qsyxnt4vCly6kLTCOQVT2hTWNlVIo4lmOlm1SoBDY+Ia3Vq8VyOMwZQE009nBU/kLsQB2cNOdpcaw/F2Gw65InAp/d0e5KxNLJ2JprhG89NkD2/tnSIYGvN27x0T12h1bWL0YMrDEcHrBgHgoOS5KMFwyAnBS68WbVwYPa/R3jFxjdYqfI4GpiRErkbd8GmRaw2HvG766fO6NVzK0/HUczH99ALrBMlN0gpPyZ8VP5N1cY32jpHXJ5rp89sHyqkR9VwmmuIa3VxcW6OvZp4ZIpPrumX/kcB1vwkA9a2/dfhf4qDxCwXzEsZwvP2GQ4IMxZ1mPn91R0PytLJw/eEBcY0Gfufwv1yeLpdGQ2Pe/r1j2TR669DaGqEHUyJYhuphVnZShFdMP31Xt4ZFe2BLQ7eGHzD91DMcIvTGZ5yJA/KMxGllhmWoZtJoopm+u32geI22Dww/MNFMvb1j2TSan15fIwzylhBqJNhDLEobAPZFrlZI8SOWRHdJZJtzBVcjV9sjcVpSoUZChkaT9WI0Ykl0mTWarG+sEXowJaQ9tVScOst5mxoAXDP99EptfPZQXlvZhuOZtfHZSZb9meXBTVgh9dLCCohn1miimV75wWuzh/Layh4a88wfvCZHo/npzTVCD6akMC/guqReQTEAPBO5mpIGcobj7WSnomUUvk4AYE9R3hcPzAuQqtFkXY1GQ2PeTnYqWppG3Xhf6MGUFLYtK2v3hH4RLtClFzvBLGdQxzNMPyUst0VWVf1mFYwL3O1HLVUjuvRiJ5ilMDTmGRPNlLDcFmkadbu0Qw+mxOjW8NbaePjnrO2ILBc6YYWUIla46WO6KtusBALrW7QTAL6mW/Ygq6E7xFnlbDNm2lP2saQ1p6K3lBK2DwxvffY1dRqxwk1LGnVKIKwH61u0pNH2AXuQ1dCVrtF7L9nHbi12pxEamApg+kt9fK5IfIDXI1qjn3RNcv+g9ZiJXO1ADvdRAuu11PMaTdb5NEIDUxFq47P7dcs+rbJ/c0HQt3Wzap7LWvzgtdn9Dw/0rkY8nksHNDAVggV+r9H/LHoukqhMQLdbWOC35zQS3U7HIG+FiFwtbk/ZDmviLproVRauxgGxe8m4AAv8vvdS72g0P03sLLk66MFUFNZhoBRndAQ4E7ma6MHBysA6DFRWo8l6do3Qg6kokau9AQAvZOnRXBAzcUCU9MouG5P16mo0Py1HIzzsWGHioHEVAN6m6+Qt28zBHHYwRKHr+MtJKzz++as7GklrrupLh665PH1XI+Nr5dfo5mJ4/K1DOxq3FuVohEukHkLCGSYV0PX7SEnquRSOhDNMKljSaK16LllBA9NjGI43qFv2s7plP1XgTgZ9UD+IA/JB0grnktZc6Su55cnQmDe4fcB+9uGB4jWanyYf3FoM524tqtEIDUwPY/opfXhPihYREoA+tITFh5AumGgWoxGLDykHDUwfwNL8v2045HFWvnGnhDdnzBqcf8KOHHyYc8fFnoKl+X9775gajdiRgw83O24gGzQwfYzppzY7APcYO2y33mG4BVa/pNOruRm5GhqTHJhoims0WS9eo/8fAAD//7BDnqfZ2hPbAAAAAElFTkSuQmCC;labelPosition=center;align=center;fontSize=13;" parent="1" vertex="1">
                    <mxGeometry x="168.5" y="652" width="80" height="80" as="geometry"/>
                </mxCell>
                <mxCell id="_VQj6Xifrk6xAAOt1aUL-4" value="Push to Main" style="edgeStyle=orthogonalEdgeStyle;rounded=0;orthogonalLoop=1;jettySize=auto;html=1;fontSize=12;" parent="1" source="_VQj6Xifrk6xAAOt1aUL-5" target="_VQj6Xifrk6xAAOt1aUL-7" edge="1">
                    <mxGeometry relative="1" as="geometry"/>
                </mxCell>
                <mxCell id="_VQj6Xifrk6xAAOt1aUL-5" value="C# API" style="shape=image;verticalLabelPosition=bottom;verticalAlign=top;imageAspect=0;aspect=fixed;image=data:image/png,iVBORw0KGgoAAAANSUhEUgAAAMgAAADICAYAAACtWK6eAAAkY0lEQVR42u2dB1RURxfHB01M7DVijTVGRY0V7L0bu8lnjUZFxYpiQQUrYO+CdBFQrDHWaIxGY0/sKE3AjgKCIIIo5X4zbxfYt2x5b/e93eUx/3PuQV2Kuzs/bpk7dxCioqKioqKioqKioqKioqKioqKioqKioqKioqKioqKioqKioqKioqKioqKioqKioqKioqLSVWZyo6Kiqla6WqU2Dft1mTJo47p5I71+Wzph/xli8372+m3q4A0bWjfs25V8Dn2lqAqValdpXtt+bIDf7sVhCYGO0cAyB5kFyM13UWjCwlEBfuRr6CtHJWmVKVOjgs3QTRsCHaMy1IGRB0cUBCzNM/+lkRk2gzZtKl26ekX6SlJJTV8M6GAz3nPRg5h8YHCAI9eWRIGX3f3XA9tOm0C+J31ZqQq6irRs3KPTFtvL9wKXRWdrgiOAAxzE/GWWvXnGP/daNujRifwM+jJTFcg8w3HCoYOBy6KyVILhqMJrOKgHQwEO8F8cKbfHWY5jDx6k+QlVgVGFChXKTOu7ZoXf0vAU7DVA35BKPRx55js/NMW6h8vKCqhCGfoOUJlsnjGkzbSfPRbee86AsYyL19AfDn97me3Btsv21ov+bax/pvkJlUmpab2OrTbOvHCdyTMEhCMXjCWRWuHItUWPs9dZn7vepG6H1vSdoTKqqleoX8NhbGBA4LInmVzACBTYa7DgWMTAoWiZi3/2DyT/R/pOURlaxcb0cbDzWxKWuHfZEzBGSKUFDtizUGbedo8SR3ZfPJ/8n+nbRiW2ig5sPnmw16IHz2RgCAuHP498QyGkUguHn4K5zb7zbGDjXweT50DfRirB1eLbTo3XTT17AYORxR8OHiVcfvmGdjgW5FgEsSynCaf/rl+lgwV9R6kEkXmpepXtRvp4BDhGpRMwuIZUgUYKqTTAIbP5EeBrF5Y+d7i7J3lu9B2m0jnPGN3dfqbfktD4PDCEhUO3kEo/OIjtlpunbXD8iC4LZtH8hIqPirRtOrin59zbIXuXy8AQLKQyUL6RDwwVcDBmJzPXKTdCrBr174Vo2wqVJjWsbtnAxfrkKQxGVg4YgoVUXPc39AmpuMJhp2jhMpsXnrVy7LHTdav/0ICuBCqWypcvX9Z2mNsWf8fHqYpew1j5htAhlWo4whXhyDUv25C0Gf22bymHRVcGVbExXRZb+y0Ni2PA0Dmkii5QIZUqOHwVbW44eMx+EDe43aKpND8ppLJs2LfdllmXbu1d8SRbbziWitIyIlxIxRWOucoWlr3213O329Tr3Z6umEKiWubN6qycfOx3VWBIoYTLMd/gAgf42uZatsPIQ8e+NW9al64gyapaiWkD1jrvcYhIyQVDB68hdAnXX6QSru5whLHg8FEwj5nBKb92W+1CXku6nqSjL4d0mjnW2z74BQsMg+QbkYIk42LnG1rhmINtdp7ttLn9cmDraeNoflLA9UODTpbrp5+9pg4MnUIqrnDo4zW4wqFPSKUjHIzNCmVs9Ziz1xrX7mhFV1oBU81KNautGHsAt6FHZQgKhyTzjTDlfIMTHMS8sXnNDMlYMMI/sGLFGtXpyjNxmZublxzXb9lSnGck5wPD5Eq4JhxS2aoAYzYbjFybKTN3mwfJIzsvdTBH5iXpSjQ9Fe3bZsIwzwV3I1WCsVyF11jGxWuIkG8sMsD+htAhlSo4Zqq2bb9ei+rZbOxwRNvqTUP1a/VssW76nxe1gUFDKrUlXF4hlVo4ZoTkmhe2VaOPX6xfrXMLukKNJDKlcPYIV9cAx8j0gg6HnynAocFrcIXDS9Gmh4CHTXD6gj7ebuS9oivWcCo+qpe9ndo8wyRLuI8LTAmXS77BBQ5Fc592//2w9nZ2dP9EZHVtObTvzrk3HnIBQ6vXEGRwmxavodupP35egysc+oRUesDhZZNjj2D9+IuPOloM7UtXssD6rlbbRk64DT1weXSWIHDQfEMFHHxCKhVwTFcHxyPGPHNs2sMsxxGHTn9XtWUjurL1VNmy35afNWTbpr2O0WkawShAJVz9WkZ0D6l89SjhakrGtcHhyYJDwaY8/Gjdff1mmp/opmJDu8yx9l0cGqsVjOUCh1T6HGzSId/YszACf4/HjAUslpn/Ytnfc4ARNd8QOqTiAkeOTX0EOybdihvQ2mYKom0rnGRmZTGg2zbbK/f4gFEQQirydUfWPYXTri/g2uFYCL+RBDGPUyH2SRokxqTD+7ef4UNShszeZUBy/Gd4+yIdYqPT4GXoBwi5/A7+3hMDJ7Y+g/0rohhQDFfC1SekUg2GzB6Ch9zWjTp/r2W93t0RvYJOtUgb+ooJBw/jPCNDDDgMPbgtEHudE9uew61T8fA6Mg0+pmRC5uds0FfZ2QCf07MYkB7/mwyXg15D0DI5MCKWcIWGw0MBDo8pORacsWhwwOFa5t/XoUTIRY672gze7BywLCqdExgmXMINWhEF53fHwLPgFPiUlgUGE4aGeKH75xLgiEs0A4qhSrh8Qyr1cOTZLusH6ZO6rHEp9NPq2zXs3d59we0nfMHQacqIPl5DAxwkVzi18wVE3XkPHz9kgrGVlZkNCa/S4VJgDOzB+YtgcEzXXMIVCg5F2/jL5bBG5q2bFEo4+llNHhGwLPKTbnAYP9/Y6xgFl/e/gXdvPoGp6vPHLHjwVwLsc3hs9JDKkwcYiuY2+W5Ki9q9uhQqOHo2+KkjbhH5KFZIJebgtgAcfl0/EgspCZ+hoIiEe/fPvQV/XDEzSAlXIDhyzHXSnaSGNdo1LRRwkHu/vewfxIibb0QJnm+Qr/ln35sCBYaySAh4/fAb2I3zE1PJN7ja5vHXI8qj8mUlX8a1H7PHr6CFVMe3Poc3uNwqFcU/+wi/r3/Cr4Q73TAhlSYb1tTFXdJl4KZ12zXF00Q+mzocOWAE4u93/3wiZGZkg9REkvk7f8SD75xQk8k31NmG/92Cn749BG3NPNJLo7rSnfy4aNyevQWlZeTYludMNUjqIhuR+5c/NrmQitiO8fdgUtOT0KGoN7RFnox9j2Z4SZWPr/0cwlP0hkPoWbjKcOC/XzkYy2zGFRaR3OT09mfCwaEnGO6Tg2F+5wvQvYRfLhhtkQdjlsj1HULoS8nR0aZxrx6sYW0mmG+QkCr0WhKzW13YREKuG0feyMItI4ZUKwdegwGV9iqAkQeH3LLKo9YdJAfIgPZTbAwJB9/Bbfvwz30RkgqFWeQXw90zb+WQGBaOLWPuwOh6v0H7Il6a4GCsGuo5UXKALB4bsMlUS7gHnJ5AUuwnoJIp4vo7vFcSYpB8Y+ev92Fai9OsPEMTHG2RO1ig2U7SA+SXADdTHNx2EMNhyrvhxlLY1XeMJ9HqNXSFw/ohLO5xCXqV3sMZjBxriGy3Sw6QJTmAmND+BvEcyXGfKQ1qFHo5kUnWhQ6pXIbehMFV9kM7M0/ecBBrLEVAcIjlJlYJV5eLafbhFvHCUMbVV3fxXolQIdXWsXfhl++P4TxDVTjFDQ4ZIHN3SM+DyAExhcFtgUsj4WV4Kl39HBP3K3tj9ILDbeIDmN32HHQu5ssDDNVwtEW7pAkI8SCmcuov9GoSXfk8RA56ndj0hP9+Bs4zHPpcht5lA/DC9tLLa+TAIX1AjHzqj7SoF8Z9Dn2VlpwBAQvDOMOx/qf/YHiNQzjP8BYAjl0sayjNHMTfzdin/o5telaodsiFVkz4B5y0P9IIxrZf7sLEJiehPW8wuMFhxQAyZ0fhAMSAg9vIyb+3L2lSrq/+Ox6rJpyStYd0/dpPDoZwIZUiHFbIrRB4ECNMGbmDd4iphEnajzhHsfKMFQOuQt9ygQpgCBtSWSnAIX1AjDC47eiGp5DxiYZWQunti4/gMzMENo26DSPrHFHIM9SBIRwcMkDmSDRJF7llRNXgNhJavYowvZIuOWOS9j4D4p9/ZHatb52Mw82Cscxx3n+PxcGjS4nwOjIVUpMywNTgTkn6BMuGXYKOX/jo6DU8eIVUyiZdD2KEwW1/er40mYVFCgQvQj7ABd9XcGh1FHP0VdsgBfLYfsfHcMb1OTy5a9zJKZmZ2XD+QDQMqrFPCQx94djFGQ4r5CpdDyLWrrg6OIj3MPpueTbA+/jPcO1QLAQsitB7cJvfvDC4uOcVJOCCg6HK1eTnhP4bD5Msj+FwigsYwoZUinBIGBB/N3HyDfWzcMkQN2PueXxI/AyXAmJg99xwEHpwmzfOAc55vIDkOHEbLeNepMLKcRdxt62PwF7DnYfXyINDuoCMxoBw8Rr6DIpWnIWLH4/DwwmM4jSyAB5eTGTG7Og0KJrHIIXdc0Lh3tl4/DOF/U2QnpoBe9c/gF7l/FWAYUg4XPNZQzRbgjnISCVARL574+SO50x4Y2ilJmcAyRcMPQv35JanzNBrfUVOFl4+/hyG1TmgBgxh9zeseMJhhXZiQGbtkDYgBrh7I/L2e4PDQSa0H1wZZbS7N/YtidAr5HoWlgSzepyGdkV8RIJjl95wyACZKWEPYoC7N4KWRxu8NBr39KNCEm7AuzeUTvuRJD7uCb8ZXomxH2Gt9RXowJRtvU0upFKEQ9qAiH2dmfximkuBrw0KR1LcJwjEFTPB7t6Yod9sqj0YEi5HiDMzsuDorlDoX3mvHAxv0UOqtjp6DTYgEgyxFvzs5xVgoOvM3kQZbgoi2Zc4tDraICEVn0EKQQ4RzEakurLt7fMxMNriiBYwTCOkYtsOaXqQmYM8g4Qs4aq7Ppnc0WGojl2y0M55vTTZuzdOb3+ar7r1Kvo9LBx0DtoX9VEJR7si3iAzL8bywWHmgf/dM8/MhC3haoNDBogEPcjMQd5BnO/e4BlSKV6C+ZfPK4N5j4gbSaARDr1DKv0HtwWflzVpfkj6DDsX/AvdSvopgMGG46fvDsL7xHTGkrGF/BsHnYp5s7zGljlXmcdyPme3021R8w1lOKQLyI+eQYa4Pjn8epLBQqu9Sx6bxHVmmgYp+Mx8BL/tDIWB1YKUwMgfVtkNOMN6jvevvJbPqcoLpc4ERLA+Z9W4C4KWcDWBkQfIzEIAiN4hlerrkw013+rm0TiTCKnUwoHb0J2G3IAfv9mvFYycXGP1hIus53jt9PN8uUbIf3Gsz5nR7bio+UZ+244BmbFd2oAIlG8ow0EuziQbXaIfP8XJr//CcJO962/z6Dswqu5RnB/4cIaD2M6FN1nP87h3KAuOdkU8mBwmd1MR5zcTWh0WPaRShEMGiFQ9iAghVY7txnYK754bovfq7pl4biGVPnf9cfUaU9nTQ2xancHTQ3arAEN7Cfc3txDW89wy5xqrStW1hDe8jck7OvDpYyaMqL9PYK+hGQ5pexABSrjKcOxWsH/2vTZI5Yq0n3ubUL5BpqHb4ymF3Uv68wAjf4Uq+Fos67na9jnNKuEOrB4Aqe/zBu29f5cOPcv6iBxSseGQNCBc4eAaUinCsdsuAoIvJIoOCLmdieQephJSrR3+LwytelANGJq9xoqxf8OBrcG5lvKOnb+dC4qEA1sf5NopvzAmrFL0IId2BMN+/Bgx++FnBM83VJlkQyx9S7gq4bDLM0NsEJJbmXiFVPrAoSGk2jqOTCk8jqtMPjrBQexMwGNBXxsCi9D5Btu2MSZdDyJgvqEMx+754aJXsEh49du6J0YNqdwmBTNTCrt85acBDG4tI2cCxQJE2JBKEQ4ZIFL1IAKHVHkWjr9PBKQkijuIOj01k2lINEZIRcbqOPa9An3K7tUBDNUtI38o7WnoD8gD0eGQMCAeQcLDEZ5rgXjTjkz/E1OkldxnloHhkE8pHFHzsBYw+Dcajml6COb0PgWze52CTbOusnOtV6n4sZP4sRO5H+9cZHcp/O7xCGb3PgGz8GPk4/8a7hM831CGQwbIdIkDIkRIlQPHPJkFLYuET2ni9mC9Ck8FQ5Zwd0y4D5OansLHXX0Fh0O50XBu31Os5/roRix7f8NsF1w/85z1Oc6T/xY932DbVsYkmoNgQPQo4WqCg9h+3KSYIXKT4oPzCfyOxOq4K+6Gy7bzOp3HUwr36AgG/y5c14U32JuEXqGs/Y12Rd1xbxa7DDynzwmDhFSKcMgAkaoHETCkygHDV24HVkZBxmdxdwlvHH4jekglu8QyiAMYfLyG9hb1U37hrOfqvuQma1e841cekPCGXSUcVjfAICGVIhyS9iAa4ZivOxy+cg8idpv7tYOvRYNjw6ib+By4D7RE68AS7RI5pMrfon79D3b4tMb6Imvjr3NxT8j4zH59u5fxEjmkyg+HDBAb6QEyIwcQAfINFhxzZbbPIZKpMompW8fjtE4Z4VvCdZ14H6xxP1ObL9dAc7Qa2yrmYyu0CayQp2hwdC/lg3fBfRnrXd4XHt5gh08rxp6HHmW9c21YncB8U0/6VvbFj3kx1uFLN1Hyjfy2RbohFn84wjnBQczfPoIZ0ymmIv9LEmx/g5RtF3Q/Ax1LbpSDkQNHjq2EFvjfWuNFIQNAuHyjPW46DL8TD5/SM+Hzp0zmo3IPG/EWOY+Rj5/T8//yUfx6h5FnRck3FMHIMWl6kH4EEGHyDWU4fOeG4e8TzkwVEVNkaLMQIZXT0CvQr4qbAhj54cixH5iPztAGLzChQioCSFRwgqCvzbIxf4qSbyjDIV0PogiIPvnG3Pxw+NrK7N1rcXfSydwp3zmhoCscW8behlHf+0PLIs5qwGDD0QytYFkLtEaen+h3Vrx9EXeIfihs39qy0WdFyTeU4ZAsILkeRIB8QxUcxF6JfDFnVkY2HFgeyXt/w23SA5je9newLLaWs9dQhqMZWi63FdASbQAr5K7zlJF2GJCLR6IxJAmMJ3kZlcx6np8/ZQH5d8bkn5P0lj2lkvxd9thb5uO8ASdEC6nYtlnCHoSn19itIaRShMNHbvf+FP+SnL/9XnH2GmQXfGlfvJ9RZqsSGLrCQWwZY+TzWuMFo+tsqg5feMjNHRaPOMt6jqH41GCnr9zxY7ty7VwQu29r1+Lr+N/dsLky1tZsp2ghVQ4YOSbdHESgfEMVHD5zwuDvPTGiA/LiUQpzT582ONb+dB1+rOYBLZCTBjCUQ6qVGsDIg4NYU8YcMSiroA3artdsqo2zLrOe49WTT/GCZ+9vPL7P/uVj2/eEwUIqRTgk60EIIEKHVIpwkMkiJ7Y8E/1EIbkSmUwvVAfGjgl3YXyTIGhTlJRt+cCxggccjvmsBXJhFrIuI3i8V/7Heo5/BISz9jaId4iP+cD6nHEt9otSwtUGh6Q9iFAhFQsOhWmGe3COQ25uEltkw1AZjF24bDun00mwKrZOhddQDwfXkErRa7DNgWWt0Dogi57PIAVy9lxRfi63WRt/XUq4Q3LCR1YJ+KcGAQbJN/LbJgkDInBIxR4SLZtN9T7hs+iAyLp6Q3LhWDHoEvSssJ0Bg09IJSwcSxVsGbRGmzkPbnt44w3r+Tn87yxrw29QTT885ihvj4lcwda/io+I+YZ6OGSATNshYUA0eI15/EIqVVPUyTA3Q+ii/yvYOAofd62F20PMnOVgGCqkclAJR5NcW8LYD/j7tmEWpuaz4rEv2OHTr20OsgAZ2yyImeOb1wr/Abee7DJYSJUDRh4gkvUgwuUb6gZFkxudDKF3cWnQveIWNV5Dn5BquU5eQxGMPFsMVqVXgP/6WzCgqp9KONrjCtXVU0/hzqVXcPefV3D74ksY9K0fa1d8dJO9zGPkc4id2x+B85IdBvUabEAk6UF2BelTwlXON9RdTLPP4bFBZmMRHXS9xQEO8UMqdXA0MVsMB9xkbewp79Jh27wrOJ/wzNeBSypWMtspL9fmbxkhQOSZeCVcbXBYoY0YkCkSBKQvBkSEkEp5cJsv/lxDXdxJQJw9YL9oJVy+IVUuGHKbMyQg3y+Ll5FJYPfjSbxZ6GbwLlwh4LCUOiBCh1Sqxu/cPhVvsAHWiXGpMLiBqyD5RlPe+cYStXAMsdiCK0+qp7yQie//nnsOIxvvFe3Un1D5hjIcMkCmbpckIPqUcPnc9XfEOdpgYRazeRiZCN0qbdQhpBIHji6VneBltPZeK1KuPbTzAfT5xlvELtytgngNSxYgEvQgNjmA6FHC5TwLd2YIvIsx7P3oYXdeQ9eKGzTAsVzcfENuHSuugrC7/AoVCW9SwXnSX9C+6E5Ru3CFgMMSbQBJehAGEF3h4Hq9gMIghasHDHsNG9Gb58kwtJGriCVc9WAQ61tnPbx6onuX7tPQBLDpekSeqJtOSKUIRyEBhGtIpftdf/4LwkWfcqJKSW/TwHbwfoPDMbGbJ8S9Shak8HDpaCQMqbXbSHBs1AiHDBCphlh6lnD5zsINvZwIxhBJgo9634HOFdeJHlK1+toRdq08z9rIE0IfUz/DnjX/QY9y7gbb31ANx4Z8JmEPIkK+oWHKCDm7kfk5G4yl+NcpsMr6OLT+epXgJdymZktgSi8fiHz4RuSw8T0+DPUHHvuz3Sj5Rn5bL1EP0hsDomu+MYvjXX8qjsM+vpkERhXmM+ZpEqy3/QM6lHfRO6QiHsOm3264e+UpDocMd1npwxuvYULrILAyM3xIpQiHpAEROqTiMrhtP95ZN0SHLxelffgEV/6IANuh+6BfnU3wQxFHTnC0LbsSRlm6wt5tVzmVb0Vr9cdh3J9BYfici5dBQypFOKQPiIghlaqz4u5Tg+HSoWgwNaWnfYbYl8lw41wk+Ky5BGvnnASn6cdhtc0xcJ5xHDYvPANHfW5BdEgcJCem5bvO2ZgiF+f8YukLlmizQUIqZWuIrLdLExB9QqqZ/K9PXjnkH+hdyRW6VtiMF+N7oBJGT8JjoWWpBdAYzYWWyEnQEq42OCzROsCASNGDuAUJVcLV5jW2/nIbfq6/B1oVcYEWyJkx+5FH6coWSBN77iR3ledaE7QA2qB1ouQbynDIAdkucUDECancJsunFBZdmwuGov1z8jFd3Xrqd7+bLDjwXR251gwtBktm4orQXiMPDgkDsitITDjse/0JXfD0EFVgyMwJ+tbYDomxH+gq11GvniZA24r2KuHAA6Xhe2wN0WxojpbJvYUwIZWySTTEIoAIW8IlYLiMuAb9q7pDS+SsEY4cm9FnX74hzFTa9Sk9A0a136wCjDw48mw6NEa20AqtFhwOS7QW/7zJEvQgvXCIpceuuLJtw9NDxjTai/OMNRrAYMORc27Da/VluuJ5arP9cbVeQxEMttmABbKD1mgN5xKuNjhkgEySoAfptStIiJDKfUowzGx3HNp+tZ4zGMqn/lp/6QznDoXQVc9RJ/fdAosv5vCAwyafNUX2TCLPN99QhkPCgLgF6QOHJw6nHPpfgG7ltmsBQzMcOQea2pdaC8E3XtLVr0UPbj6FliXtdIajAZoG38mNfG5z5AjqwdAOh7QB0bGEu37UTRj8rTe0NHPhBYe2QQrdKm2A6JB4SoEaPYuMh47mi1lwaAupFO07BTi+Q1NzjSTyLdEq4AtGHiASzUH4tozsmHgPxjfdzyHP0OY11J8X726+EaIexVEalPQi+i10q+nIK99Q5TWU4ZDZFMYs0DxojZx5wLGGMUkCMrHzpi1cQyoy1nNeV9zcV3wjBzC4hVSapox0r7IRnkUkUCrkiotJht71VooKB7H6yJr5N5KfyADQDgexBmiis+QA6dZ47BRtIRUBg0wp7FF+B0cwnHXyGqoGKbQv4wI3/ooq9HA8fhgDXao5qIFjOud8Iz8cU/LBoWjka5sjB5BBoB4OYuaok7XkALGo3qUbhiFbHRybx96CEfX8OOYZusOhaZCCZXEnOLb7LtOiXhh17/oTsKqwkLfX+J6H18gPx2SWkVJyK7QS1MGBLbssatwDSVBfu02580E5pHLV0h6if77Bb3Bb8yLLYd3s08yJusKi7OxsOOhxFVqUmCdqSPWdktdQhiPPrOX5iVM+QNogp1SEUHEpAkIu0TmcAwcJpxb2PAudSm7mAYbu+QbfwW1j23nCi0jp5yVpqZ9gpc0BaFxkll4lXL4hlXo48ox8XTNm/8QlF5AmaMZvSKqqW6VNGw+bR1nOw69C38puPMEQPqTSNkihXRknOOTxn+DnvU1FIbdfwEALZ53yDaFCKi5Gfl4LZv/EJasCatQWSVhFulZbvJ9fniFmSMVtcNvELj7wOPiNZMAg4ePOFaehaTFbQfc3dA+puFktNPwEWUNSBgSVRJXN8YJ8LXZIJfTgttbFV8CGeafhXXxqgQUjKysbrv4ZBv2+X22QEq6QcNRHvyYURxVqosKg0siiA17gafxCKlO4ewOfDy+zEo/ZuYBBKTht8+S47v0bT2Fc563QyGyWACXcqYLnG5pt0sdSqF43VJhUBXUa0EIjJIbNN/hOGelUyQm2L/0T4l+b9lHeu1ejYXJvV9xsOFvwlhGxQypi9dCk9HKo+RBUGFUS1WmGF1uEoUq4Ygxu+6HoEpje3w9uno9kppaYghLjUiDI7TIMbOKiU4u6aYRUk6EuGhdZAlVrgQq3KpSphUY4Y2+SrjmkWm1Sd2/IzJ4xC/LRzB561HQBpxm/w78XoyDjc6ZBofjwPh0unngINgM9wbL8Is4Hm4xVwtUSUqWboy4uCKEyiEq+i4jM62AXfRjDkaFPy4hwcCzhDIcFWsSyJkUWgVWZZTDjx93gs+4iRIfG4VE5aZAp0KA3UnZOTkyFsHsvwW3VGRjfbQc0L24nzy9mcYDDdEq4SpZRHf14mKwFSoRqmZVDFt0aI7t7hg2phIPDAi1UsAUyM1sAVmUdYVjzzWDT3wd81/8Nl06GwJ0rTyDiwWuIfZUMSQmpkJqSzoRp5GMy/vubl0kQEfwabv0TBZdOhYCny19gM8ATBjddC23KLGTaxmU2S+0gBX4tI8aDozYaea8UqkUScTOKgXYVq4q6WDdDjrHCw+Ggc77BBoMbHI1zbb6S2YFFkfnQ7MsF0LL4InwoyR5alVoMrUvj8aKl7PHfF2GvsBCafmmHd7nnQiNkCzKbrQDGbA1gCBlSiZdv1EMT4sqjllPIe06XPW+VLV8LDd30A1qVJma+0VRQr6ENDjslm8dYo1ybq2C2CjZHDzjEKuHqA8bEj+ao22acZlSg61xPYdfbCL+JpzAQWca4mIYvHJq8hjIcqsHQBscsjXCYeEiVVRMNOV0MVW1EV7bQ9S7Usi9eVA8NVcIVOqTi7zVkcDTkDIdpl3Bro1GPSqJ6felKFlfFq6BednixJwsLx2IecIgVUikDYox8Q/gSLg6nkiuhNnaSbVM33fxkmCte+On8Q6qlIuUbxgmpDHPqT7dd8GqouxvNM4yoEqhWC3yi7aIwIVVByzeMc+qPW+ftsIsl0Dct6Ao1DRWtiNoMa4TsIsUJqcTKN8QKqaYbLaSqjUZHlUUWw8l7Qpelycm8ZFXUeyle8Mm6wyFsSMU9GTe1fIN/nvENau/AtNhRmXrYValaLTQmAMOQUZhLuIbZ35iE20P6BxRHFavTlVfAVAbVscRv/jXTKeHO5VHCnWnyJdxv0YhrxVENK7rSCra+rIjaj22I7F4Yt4RrK5kSbl00/mU51GIcou0h0oq8qqI+zhZofopucAgVUtmaYAnXmmuekfIN6uDCRLFU0tTXqErt2mjcEQxEFi3hcvYaWTXQ4KO0Db0QqTSq3w4vllsYhmzj74rPMtWQKrsW+vl2aVSrPV0xhVPFzFF7a7zI43SBQ7eQqmDkG/I29Kk0z6DCKl+2Jhq4BS/61ILZMiJcSIXzjDRz1HULQuXK0XVBxdJXqMZ3ddEvpzAUWUKUcMXZ35gm1pQR3IY+/PRXqFIDuhKoNKlIWdSoJ15gIQWrhKv7/gY+7hqCJ8z0QlKfWkglbH6CZ3fNxJ4gng3GvAIWUllrCKd+ja+ILGfRPINKD5WqXAMN8miIbNNN/9QfV68xKR33rHmS50bfXyph3Amq0hgPMruAwcji1zJiUqf+SJ7xN34uFvQdpRJDRcuh7wfhxRld0Eq4ddC4aLz3MwjRNnQqQziUyqizHV7kiaY+SAGXbRMrIav5NM+gMrjwOP4aNdDQAAxEpgkObsusigYEkv8jfaeojKoS6NtW9dAv1zEQ2SYQUuH2kJ+ul0BVW9N3hsqU9EVZ9MPPeAE/N9auOM4zXpD/A/m/0LeDylRVBucnK/CiTzFUFy5pQ6+M2q1EdBo6VUERaavHJdWDGIpMEUu4WdXQwIPkZ9FXnKogqkhpVLdjXTT2LoYiW8B8I5tMQ/8a1emEaHsIlRTyk3Ko1Xg8SC1G33wDN1O+xleSTaB5BpUU05MKlVG3dRiGdP5wTEqvgjpvQKh0Rfo6Ukk+P8G5gx9e+AnaQ6qJCdVQP7+vUTmaZ1AVNpWuVArV7lIFdVlXDfX+rQYa+Acx8mfiLfBjXcnn0NeJikomM0SvIKOioqKioqKioqKioqKioqKioqKioqKioqKioqKioqKioqKioqKioqKioqKioqKioqKi0ln/B9BgiQREBLsSAAAAAElFTkSuQmCC;fontSize=13;" parent="1" vertex="1">
                    <mxGeometry x="339" y="788" width="80" height="80" as="geometry"/>
                </mxCell>
                <mxCell id="_VQj6Xifrk6xAAOt1aUL-6" value="Trigger" style="edgeStyle=orthogonalEdgeStyle;rounded=0;orthogonalLoop=1;jettySize=auto;html=1;fontSize=13;" parent="1" source="_VQj6Xifrk6xAAOt1aUL-7" target="_VQj6Xifrk6xAAOt1aUL-3" edge="1">
                    <mxGeometry relative="1" as="geometry"/>
                </mxCell>
                <mxCell id="_VQj6Xifrk6xAAOt1aUL-7" value="Github" style="shape=image;verticalLabelPosition=bottom;verticalAlign=top;imageAspect=0;aspect=fixed;image=data:image/svg+xml,PHN2ZyB4bWxucz0iaHR0cDovL3d3dy53My5vcmcvMjAwMC9zdmciIHdpZHRoPSIzMCIgaGVpZ2h0PSIzMCIgdmlld0JveD0iLTAuNSAwLjUgMzAgMzAiPiYjeGE7ICAgIDxwYXRoIGZpbGw9IiMxRTFFMUUiIGQ9Ik0xNC41LjVjLTguMjgxIDAtMTUgNi43MTktMTUgMTUgMCA4LjI5MiA2LjcxOSAxNSAxNSAxNXMxNS02LjcwOCAxNS0xNWMwLTguMjgxLTYuNzE5LTE1LTE1LTE1em0zLjk2NiAyOC4wMjJWMjUuOTZjMC0uOTg5LS41MzktMS44NjUtMS4zNzEtMi40MTYuMDU2LS4wMTEuMTI0LS4wMjIuMTkxLS4wMjIgMS40MjctLjE4IDIuNzE5LS42MjkgMi43MTktLjYyOXMxLjg1NC0uNTczIDIuODU0LTEuNzQyYzEuMDU2LTEuMjM2IDEuMzI2LTMuMDY3IDEuMzI2LTMuMDY3cy4zNDgtMiAwLTMuNTUxYy0uMzQ4LTEuNTE3LTEuNDYxLTIuNTczLTEuNDYxLTIuNTczcy4zODItLjk4OS4zNDgtMi4wMjNjLS4wMzQtLjk4OS0uNDk0LTIuMDIyLS40OTQtMi4wMjJzLS44NzYtLjA3OS0xLjgwOS4yODFjLTEuMTM1LjQzOC0yLjM3MSAxLjMyNi0yLjM3MSAxLjMyNnMtLjg2NS0uMjgxLTEuODc2LS40MTZjLS45MzItLjEzNC0yLjAyMi0uMTQ1LTIuMDIyLS4xNDVzLTEuMDkuMDExLTIuMDIyLjE0NmMtMS4wMTEuMTM1LTEuODc2LjQxNi0xLjg3Ni40MTZTOS4zNzYgOC42MzUgOC4yMyA4LjE5N2MtLjkyMS0uMzYtMS44MDktLjI4MS0xLjgwOS0uMjgxcy0uNDQ5IDEuMDMzLS40ODMgMi4wMjJjLS4wMzQgMS4wMzQuMzQ4IDIuMDIzLjM0OCAyLjAyM3MtMS4xMjQgMS4wNTYtMS40NjEgMi41NzNjLS4zNiAxLjU1MSAwIDMuNTUxIDAgMy41NTFzLjI3IDEuODMxIDEuMzE1IDMuMDY3YzEgMS4xNjkgMi44NjUgMS43NDIgMi44NjUgMS43NDJzMS4yODEuNDQ5IDIuNzA4LjYyOWMuMDY3IDAgLjEzNS4wMTEuMjAyLjAyMi0uODMxLjU1MS0xLjM4MiAxLjQyNy0xLjM4MiAyLjQxNnYyLjU2MkM0Ljk0OSAyNi44MjYuODkzIDIxLjYzNS44OTMgMTUuNTAxYzAtNy41MTcgNi4wOS0xMy42MDcgMTMuNjA3LTEzLjYwN1MyOC4xMTggNy45ODMgMjguMTE4IDE1LjVjMCA2LjEzNS00LjA2NyAxMS4zMjYtOS42NTIgMTMuMDIyeiIvPiYjeGE7PC9zdmc+;fontSize=13;" parent="1" vertex="1">
                    <mxGeometry x="176.5" y="795.5" width="65" height="65" as="geometry"/>
                </mxCell>
                <mxCell id="_VQj6Xifrk6xAAOt1aUL-13" value="Pull Docker Image" style="edgeStyle=orthogonalEdgeStyle;rounded=0;orthogonalLoop=1;jettySize=auto;html=1;entryX=0.5;entryY=0;entryDx=0;entryDy=0;fontSize=15;" parent="1" source="zH2k-DtikKzFAa1dBs3I-4" edge="1">
                    <mxGeometry x="-0.4663" relative="1" as="geometry">
                        <Array as="points">
                            <mxPoint x="270" y="630"/>
                            <mxPoint x="357" y="630"/>
                        </Array>
                        <mxPoint x="357.3249999999998" y="656" as="targetPoint"/>
                        <mxPoint as="offset"/>
                    </mxGeometry>
                </mxCell>
                <mxCell id="zH2k-DtikKzFAa1dBs3I-4" value="Article App" style="sketch=0;aspect=fixed;html=1;points=[];align=center;image;fontSize=16;image=img/lib/mscae/App_Services.svg;" parent="1" vertex="1">
                    <mxGeometry x="232.99999999999997" y="396" width="70" height="70" as="geometry"/>
                </mxCell>
                <mxCell id="7" style="edgeStyle=none;html=1;" parent="1" source="5" target="zH2k-DtikKzFAa1dBs3I-4" edge="1">
                    <mxGeometry relative="1" as="geometry"/>
                </mxCell>
                <mxCell id="5" value="&lt;br&gt;APP SECRETS" style="whiteSpace=wrap;html=1;" parent="1" vertex="1">
                    <mxGeometry x="494" y="216" width="172" height="54" as="geometry"/>
                </mxCell>
                <mxCell id="6" value="Azure Key Vault" style="aspect=fixed;html=1;points=[];align=left;image;fontSize=15;image=img/lib/azure2/security/Key_Vaults.svg;labelPosition=right;verticalLabelPosition=middle;verticalAlign=middle;" parent="1" vertex="1">
                    <mxGeometry x="477" y="180" width="47" height="47" as="geometry"/>
                </mxCell>
                <mxCell id="10" value="TENANT" style="aspect=fixed;html=1;points=[];align=left;image;fontSize=12;image=img/lib/azure2/identity/Azure_Active_Directory.svg;labelPosition=right;verticalLabelPosition=middle;verticalAlign=middle;" parent="1" vertex="1">
                    <mxGeometry x="349" y="85" width="34.45" height="31.5" as="geometry"/>
                </mxCell>
                <mxCell id="12" value="Enterprise applications&lt;br&gt;(Assign users and groups to app-roles)" style="aspect=fixed;html=1;points=[];align=center;image;fontSize=12;image=img/lib/azure2/identity/Enterprise_Applications.svg;" parent="1" vertex="1">
                    <mxGeometry x="333" y="169.88" width="30.12" height="30.12" as="geometry"/>
                </mxCell>
                <mxCell id="31" value="Github Packages" style="shape=image;verticalLabelPosition=bottom;labelBackgroundColor=default;verticalAlign=top;aspect=fixed;imageAspect=0;image=data:image/svg+xml,PHN2ZyB4bWxuczp4bGluaz0iaHR0cDovL3d3dy53My5vcmcvMTk5OS94bGluayIgeG1sbnM9Imh0dHA6Ly93d3cudzMub3JnLzIwMDAvc3ZnIiB3aWR0aD0iMTA1IiB2aWV3Qm94PSIwIDAgMTA1IDEwNyIgaGVpZ2h0PSIxMDciIGZpbGw9Im5vbmUiPjxmaWx0ZXIgeT0iMS40NDkyMiIgeD0iNS45MzgiIHdpZHRoPSI5NC44NTU4IiBoZWlnaHQ9IjEwMS4zMTQiIGZpbHRlclVuaXRzPSJ1c2VyU3BhY2VPblVzZSIgY29sb3ItaW50ZXJwb2xhdGlvbi1maWx0ZXJzPSJzUkdCIiBpZD0iYSI+PGZlRmxvb2QgcmVzdWx0PSJCYWNrZ3JvdW5kSW1hZ2VGaXgiIGZsb29kLW9wYWNpdHk9IjAiLz48ZmVDb2xvck1hdHJpeCB2YWx1ZXM9IjAgMCAwIDAgMCAwIDAgMCAwIDAgMCAwIDAgMCAwIDAgMCAwIDEyNyAwIiB0eXBlPSJtYXRyaXgiIGluPSJTb3VyY2VBbHBoYSIvPjxmZU9mZnNldCBkeT0iMi44Mzk5NiIvPjxmZUdhdXNzaWFuQmx1ciBzdGREZXZpYXRpb249IjEuMTM1OTgiLz48ZmVDb2xvck1hdHJpeCB2YWx1ZXM9IjAgMCAwIDAgMCAwIDAgMCAwIDAgMCAwIDAgMCAwIDAgMCAwIDAuMDM2NTQ4OSAwIiB0eXBlPSJtYXRyaXgiLz48ZmVCbGVuZCByZXN1bHQ9ImVmZmVjdDFfZHJvcFNoYWRvdyIgbW9kZT0ibm9ybWFsIiBpbjI9IkJhY2tncm91bmRJbWFnZUZpeCIvPjxmZUJsZW5kIHJlc3VsdD0ic2hhcGUiIG1vZGU9Im5vcm1hbCIgaW4yPSJlZmZlY3QxX2Ryb3BTaGFkb3ciIGluPSJTb3VyY2VHcmFwaGljIi8+PC9maWx0ZXI+PGZpbHRlciB5PSIxNy4yMDYxIiB4PSIxMi41ODQ1IiB3aWR0aD0iODAuMzE3NSIgaGVpZ2h0PSI4OS40MjMxIiBmaWx0ZXJVbml0cz0idXNlclNwYWNlT25Vc2UiIGNvbG9yLWludGVycG9sYXRpb24tZmlsdGVycz0ic1JHQiIgaWQ9ImIiPjxmZUZsb29kIHJlc3VsdD0iQmFja2dyb3VuZEltYWdlRml4IiBmbG9vZC1vcGFjaXR5PSIwIi8+PGZlQ29sb3JNYXRyaXggdmFsdWVzPSIwIDAgMCAwIDAgMCAwIDAgMCAwIDAgMCAwIDAgMCAwIDAgMCAxMjcgMCIgdHlwZT0ibWF0cml4IiBpbj0iU291cmNlQWxwaGEiLz48ZmVPZmZzZXQgZHk9IjMuMjY2ODQiLz48ZmVHYXVzc2lhbkJsdXIgc3RkRGV2aWF0aW9uPSIxLjMwNjc0Ii8+PGZlQ29sb3JNYXRyaXggdmFsdWVzPSIwIDAgMCAwIDAgMCAwIDAgMCAwIDAgMCAwIDAgMCAwIDAgMCAwLjAzNjU0ODkgMCIgdHlwZT0ibWF0cml4Ii8+PGZlQmxlbmQgcmVzdWx0PSJlZmZlY3QxX2Ryb3BTaGFkb3ciIG1vZGU9Im5vcm1hbCIgaW4yPSJCYWNrZ3JvdW5kSW1hZ2VGaXgiLz48ZmVDb2xvck1hdHJpeCB2YWx1ZXM9IjAgMCAwIDAgMCAwIDAgMCAwIDAgMCAwIDAgMCAwIDAgMCAwIDEyNyAwIiB0eXBlPSJtYXRyaXgiIGluPSJTb3VyY2VBbHBoYSIvPjxmZU9mZnNldCBkeT0iNy44NTA2OCIvPjxmZUdhdXNzaWFuQmx1ciBzdGREZXZpYXRpb249IjMuMTQwMjciLz48ZmVDb2xvck1hdHJpeCB2YWx1ZXM9IjAgMCAwIDAgMCAwIDAgMCAwIDAgMCAwIDAgMCAwIDAgMCAwIDAuMDUyNTA2MSAwIiB0eXBlPSJtYXRyaXgiLz48ZmVCbGVuZCByZXN1bHQ9ImVmZmVjdDJfZHJvcFNoYWRvdyIgbW9kZT0ibm9ybWFsIiBpbjI9ImVmZmVjdDFfZHJvcFNoYWRvdyIvPjxmZUNvbG9yTWF0cml4IHZhbHVlcz0iMCAwIDAgMCAwIDAgMCAwIDAgMCAwIDAgMCAwIDAgMCAwIDAgMTI3IDAiIHR5cGU9Im1hdHJpeCIgaW49IlNvdXJjZUFscGhhIi8+PGZlT2Zmc2V0IGR5PSIxNC43ODIxIi8+PGZlR2F1c3NpYW5CbHVyIHN0ZERldmlhdGlvbj0iNS45MTI4NSIvPjxmZUNvbG9yTWF0cml4IHZhbHVlcz0iMCAwIDAgMCAwIDAgMCAwIDAgMCAwIDAgMCAwIDAgMCAwIDAgMC4xNjUgMCIgdHlwZT0ibWF0cml4Ii8+PGZlQmxlbmQgcmVzdWx0PSJlZmZlY3QzX2Ryb3BTaGFkb3ciIG1vZGU9Im5vcm1hbCIgaW4yPSJlZmZlY3QyX2Ryb3BTaGFkb3ciLz48ZmVCbGVuZCByZXN1bHQ9InNoYXBlIiBtb2RlPSJub3JtYWwiIGluMj0iZWZmZWN0M19kcm9wU2hhZG93IiBpbj0iU291cmNlR3JhcGhpYyIvPjwvZmlsdGVyPjxnIGZpbHRlcj0idXJsKCNhKSI+PHBhdGggZmlsbD0iI2ZmZiIgZD0ibTguMjA5OTYgMzAuODk3N2MwLTMuNzQzMSAyLjAzNzk0LTcuMTg5NCA1LjMxNzk0LTguOTkyOWwzNC44OTMzLTE5LjE4NTk1YzMuMDc5MS0xLjY5MzA0IDYuODEwMy0xLjY5MzA0IDkuODg5NCAwbDM0Ljg5MzMgMTkuMTg1OTVjMy4yOCAxLjgwMzUgNS4zMTc5IDUuMjQ5OCA1LjMxNzkgOC45OTI5djM0LjMxNzdjMCAzLjUxMTEtMS43OTUgNi43Nzg2LTQuNzU4NCA4LjY2MTdsLTM0Ljg5MzIgMjIuMTczNWMtMy4zNTkxIDIuMTM0NS03LjY0OTUgMi4xMzQ2LTExLjAwODYgMGwtMzQuODkzMi0yMi4xNzM1Yy0yLjk2MzQtMS44ODMxLTQuNzU4NDQtNS4xNTA2LTQuNzU4NDQtOC42NjE3eiIvPjwvZz48cGF0aCBmaWxsPSIjZmJkYjVkIiBkPSJtOC4yMDk5NiAzNS45MTk5aDMzLjg2Njk0YzMuOTY3NiAwIDcuMTgzOSAzLjIxNjQgNy4xODM5IDcuMTgzOSAwIDMuOTY3Ni0zLjIxNjMgNy4xODM5LTcuMTgzOSA3LjE4MzloLTMzLjg2Njk0eiIvPjxwYXRoIGZpbGw9IiMyOGE3NDUiIGQ9Im0wIDU3LjQ3MWMwLTMuOTY3NSAzLjIxNjM0LTcuMTgzOSA3LjE4MzktNy4xODM5aDUuMTMxNGMzLjk2NzUgMCA3LjE4MzkgMy4yMTY0IDcuMTgzOSA3LjE4MzkgMCAzLjk2NzYtMy4yMTY0IDcuMTgzOS03LjE4MzkgNy4xODM5aC01LjEzMTRjLTMuOTY3NTYgMC03LjE4MzktMy4yMTYzLTcuMTgzOS03LjE4Mzl6Ii8+PHBhdGggZmlsbD0iI2VjNmViOSIgZD0ibTQxLjA1MDUgNzkuMDIyNWMzLjk2NzYgMCA3LjE4MzkgMy4yMTYzIDcuMTgzOSA3LjE4MzkgMCAzLjIyNjMtMi4xMjY4IDUuOTU1OS01LjA1NSA2Ljg2MzJsLTIyLjEwOTEtMTQuMDQ3MXoiLz48cGF0aCBmaWxsPSIjMjlhNzQ1IiBkPSJtMjQuNzM5MiAyMS41NTE0aDI5LjY1MzNjMy45Njc2IDAgNy4xODM5LTMuMjE2MyA3LjE4MzktNy4xODM5cy0zLjIxNjQtNy4xODM5MS03LjE4MzktNy4xODM5MWgtMTQuMTExM2wtMjEuMTY2IDExLjY1NDIxYzEuMzE2MiAxLjY1MzYgMy4zNDYzIDIuNzEzNiA1LjYyNCAyLjcxMzZ6Ii8+PHBhdGggb3BhY2l0eT0iLjgiIGZpbGw9IiNiYWJiYmMiIGQ9Im03My44OTE5IDIxLjU1MTVoOC4yMTAyYzIuMjU0MiAwIDQuMjY2LTEuMDM4MyA1LjU4MzEtMi42NjI3bC0xOC4zMzItMTAuMDg5OTdjLTEuNjE0NCAxLjMxNzM3LTIuNjQ1MiAzLjMyMjY3LTIuNjQ1MiA1LjU2ODc3IDAgMy45Njc2IDMuMjE2MyA3LjE4MzkgNy4xODM5IDcuMTgzOXoiLz48cGF0aCBmaWxsPSIjZjM2OTBiIiBkPSJtMjYuNjgyNiAyOC43MzU3YzAtMy45Njc2IDMuMjE2NC03LjE4MzkgNy4xODM5LTcuMTgzOWg0Ny43MjE2YzMuOTY3NiAwIDcuMTgzOSAzLjIxNjMgNy4xODM5IDcuMTgzOSAwIDMuOTY3NS0zLjIxNjMgNy4xODM5LTcuMTgzOSA3LjE4MzloLTQ3LjcyMTZjLTMuOTY3NSAwLTcuMTgzOS0zLjIxNjQtNy4xODM5LTcuMTgzOXoiLz48cGF0aCBmaWxsPSIjYzhjOWM5IiBkPSJtNjQuNjU0NiA3OS4wMjI1Yy0zLjk2NzYgMC03LjE4MzkgMy4yMTYzLTcuMTgzOSA3LjE4MzkgMCAzLjQ4NzQgMi40ODUgNi4zOTQ0IDUuNzgwOCA3LjA0NjlsMjIuNDA5Ni0xNC4yMzA4eiIvPjxwYXRoIGZpbGw9IiNmYmRiNWQiIGQ9Im0yMy42MDQ1IDcxLjgzOTJjMC0zLjk2NzYgMy4yMTYzLTcuMTgzOSA3LjE4MzktNy4xODM5aDQzLjEwMzRjMy45Njc2IDAgNy4xODM5IDMuMjE2MyA3LjE4MzkgNy4xODM5IDAgMy45Njc1LTMuMjE2MyA3LjE4MzktNy4xODM5IDcuMTgzOWgtNDMuMTAzNGMtMy45Njc2IDAtNy4xODM5LTMuMjE2NC03LjE4MzktNy4xODM5eiIvPjxwYXRoIGZpbGw9IiNlZTZlYmIiIGQ9Im02MC41NDk4IDU3LjQ3MWMwLTMuOTY3NSAzLjIxNjMtNy4xODM5IDcuMTgzOS03LjE4MzloMzAuNzg4MXYxNC4zNjc4aC0zMC43ODgxYy0zLjk2NzYgMC03LjE4MzktMy4yMTYzLTcuMTgzOS03LjE4Mzl6Ii8+PHBhdGggZmlsbD0iIzIxODhmZiIgZD0ibTg1LjE4MDcgNDMuMTAzOGMwLTMuOTY3NSAzLjIxNjMtNy4xODM5IDcuMTgzOS03LjE4MzloNS4xMzEzYzMuOTY3MSAwIDcuMTg0MSAzLjIxNjQgNy4xODQxIDcuMTgzOSAwIDMuOTY3Ni0zLjIxNyA3LjE4MzktNy4xODQxIDcuMTgzOWgtNS4xMzEzYy0zLjk2NzYgMC03LjE4MzktMy4yMTYzLTcuMTgzOS03LjE4Mzl6Ii8+PGcgZmlsdGVyPSJ1cmwoI2IpIj48cGF0aCBmaWxsPSIjNmY0MmJmIiBkPSJtNDkuNzA0MiA3OS4yMzk5LTIyLjI3OTUtMTMuNjEwNWMtMS44NzI1LTEuMTQzOS0zLjAxNDUtMy4xNzk5LTMuMDE0NS01LjM3NDF2LTI1Ljc0NzRzLjAwMjQtMS4wMzg0LjI2NDQtMS44NTExLjcxMDgtMS41NjQuNzEwOC0xLjU2NGwyNy4zNjM3IDE0LjQ0MnYzNC40ODI4cy0uODE3OSAwLTEuNTgwNS0uMTk2OC0xLjQ2NDQtLjU4MDktMS40NjQ0LS41ODA5eiIvPjxwYXRoIGZpbGw9IiM4YTYzZDIiIGQ9Im04MS4wNzYyIDYwLjIyMjhjMCAyLjE5MDQtMS4xMzgyIDQuMjIzNS0zLjAwNTUgNS4zNjg1bC0yMi4xMTcxIDEzLjU2MjdzLS42NjQyLjQxODItMS41NTU5LjY1MTljLS44OTE4LjIzMzctMS42NjA1LjIxNTItMS42NjA1LjIxNTJ2LTM0LjQ4ODlsMjcuMzU4Ni0xNC40Mzkzcy41MjUzLjg0MTguNzUyOCAxLjY1OTdjLjIyNzYuODE3OS4yMjc2IDEuNzUyNy4yMjc2IDEuNzUyN3oiLz48cGF0aCBmaWxsLXJ1bGU9ImV2ZW5vZGQiIGZpbGw9IiNmZmYiIGQ9Im03NS4zMzM5IDQ2LjgyMjljLjgzMjUuNTQ0OC45MTEyIDEuODk3Mi4xNzU4IDMuMDIwN2wtNy41MzEgMTEuNTA1N2MtLjczNSAxLjEyMy0yLjAwNTIgMS41OTI0LTIuODM3OCAxLjA0ODdsLTQuMjY1Ny0yLjc4NTRjLS44MzMxLS41NDQtLjkxMjctMS44OTYxLS4xNzc5LTMuMDJzMi4wMDU4LTEuNTk0MSAyLjgzODgtMS4wNTAxbDIuNzU4NSAxLjgwMTIgNi4yMDA0LTkuNDcyOGMuNzM1NC0xLjEyMzYgMi4wMDY0LTEuNTkyOCAyLjgzODktMS4wNDh6IiBjbGlwLXJ1bGU9ImV2ZW5vZGQiLz48cGF0aCBmaWxsPSIjY2ZiYWY3IiBkPSJtNTIuNzAwNCA0Ni42NjQxLTI3LjMyNDQtMTUuNTM1OHMuNDMwOC0uNjk0Ljk2NTctMS4yMDQ0Yy41MzQ5LS41MTA1IDEuMjA4OS0uOTAzMSAxLjIwODktLjkwMzFsMjIuMzQyMi0xMS4xNTE3YzEuNzY4MS0uODgyNSAzLjg0NzgtLjg4MzkgNS42MTcxLS4wMDM5bDIyLjQwMTkgMTEuMTQyN3MuNjczMi4zODE2IDEuMjUxNy45NDA2Yy41NDczLjUyODkuOTQ4NyAxLjE3MTUuOTQ4NyAxLjE3MTV6Ii8+PHBhdGggZmlsbC1ydWxlPSJldmVub2RkIiBmaWxsPSIjZmZmIiBkPSJtMjguNTIyMiA0OC44NTA0Yy0uNjAwNS40MDEzLS42MTAyIDEuNTc1My0uMDIxNSAyLjYyMjNsNC40ODY0IDcuOTc4OGMuNTg4NyAxLjA0NyAxLjU1MjggMS41NzA0IDIuMTUzNCAxLjE2OTIuNjAwNi0uNDAxMy42MTAyLTEuNTc1My4wMjE1LTIuNjIyMmwtMy40MjA1LTYuMDgzMiAzLjQ4OTUtMi4zMzEzYy42MDA2LS40MDEyLjYxMDItMS41NzUzLjAyMTUtMi42MjIyLS41ODg3LTEuMDQ3LTEuNTUyOC0xLjU3MDUtMi4xNTMzLTEuMTY5MnptMTIuOTU1MSAxLjQ5MTIgNC40ODY0IDcuOTc4OGMuNTg4NyAxLjA0Ny41NzkgMi4yMjEtLjAyMTUgMi42MjIzbC00LjU3NyAzLjA1NzhjLS42MDA1LjQwMTItMS41NjQ2LS4xMjIyLTIuMTUzMy0xLjE2OTJzLS41NzkxLTIuMjIxLjAyMTUtMi42MjIybDMuNDg5NS0yLjMzMTMtMy40MjA1LTYuMDgzMmMtLjU4ODctMS4wNDY5LS41NzkxLTIuMjIwOS4wMjE1LTIuNjIyMi42MDA2LS40MDEyIDEuNTY0Ny4xMjIyIDIuMTUzNCAxLjE2OTJ6IiBjbGlwLXJ1bGU9ImV2ZW5vZGQiLz48L2c+PC9zdmc+;" parent="1" vertex="1">
                    <mxGeometry x="319" y="656" width="76.54" height="78" as="geometry"/>
                </mxCell>
            </root>
        </mxGraphModel>
    </diagram>
</mxfile>